%TF.GenerationSoftware,KiCad,Pcbnew,8.0.1*%
%TF.CreationDate,2024-04-01T02:41:18-03:00*%
%TF.ProjectId,PonderadaPCB,506f6e64-6572-4616-9461-5043422e6b69,rev?*%
%TF.SameCoordinates,Original*%
%TF.FileFunction,Copper,L1,Top*%
%TF.FilePolarity,Positive*%
%FSLAX46Y46*%
G04 Gerber Fmt 4.6, Leading zero omitted, Abs format (unit mm)*
G04 Created by KiCad (PCBNEW 8.0.1) date 2024-04-01 02:41:18*
%MOMM*%
%LPD*%
G01*
G04 APERTURE LIST*
%TA.AperFunction,ComponentPad*%
%ADD10R,1.500000X1.500000*%
%TD*%
%TA.AperFunction,ComponentPad*%
%ADD11C,1.600000*%
%TD*%
%TA.AperFunction,ComponentPad*%
%ADD12R,1.800000X1.800000*%
%TD*%
%TA.AperFunction,ComponentPad*%
%ADD13C,1.800000*%
%TD*%
%TA.AperFunction,ComponentPad*%
%ADD14O,1.600000X1.600000*%
%TD*%
%TA.AperFunction,ComponentPad*%
%ADD15R,1.050000X1.500000*%
%TD*%
%TA.AperFunction,ComponentPad*%
%ADD16O,1.050000X1.500000*%
%TD*%
%TA.AperFunction,ComponentPad*%
%ADD17O,1.700000X1.700000*%
%TD*%
%TA.AperFunction,SMDPad,CuDef*%
%ADD18R,3.500000X1.700000*%
%TD*%
%TA.AperFunction,ComponentPad*%
%ADD19R,1.700000X1.700000*%
%TD*%
%TA.AperFunction,SMDPad,CuDef*%
%ADD20R,1.700000X3.500000*%
%TD*%
%TA.AperFunction,ComponentPad*%
%ADD21R,2.000000X2.000000*%
%TD*%
%TA.AperFunction,ComponentPad*%
%ADD22C,2.000000*%
%TD*%
%TA.AperFunction,Conductor*%
%ADD23C,1.200000*%
%TD*%
%TA.AperFunction,Conductor*%
%ADD24C,0.200000*%
%TD*%
G04 APERTURE END LIST*
D10*
%TO.P,SW1,1,B*%
%TO.N,GND (Switch)*%
X161500000Y-110460000D03*
D11*
%TO.P,SW1,2,C*%
X161500000Y-107920000D03*
%TO.P,SW1,3,A*%
%TO.N,unconnected-(SW1-A-Pad3)*%
X161500000Y-113000000D03*
%TD*%
D12*
%TO.P,D1,1,K*%
%TO.N,GND (LED)*%
X184775000Y-119000000D03*
D13*
%TO.P,D1,2,A*%
%TO.N,Net-(D1-A)*%
X182235000Y-119000000D03*
%TD*%
D11*
%TO.P,R1,1*%
%TO.N,GP17 (LED)*%
X160380000Y-119000000D03*
D14*
%TO.P,R1,2*%
%TO.N,Net-(D1-A)*%
X175620000Y-119000000D03*
%TD*%
D15*
%TO.P,Q1,1,C*%
%TO.N,Net-(BZ1--)*%
X173770000Y-94140000D03*
D16*
%TO.P,Q1,2,B*%
%TO.N,Net-(Q1-B)*%
X172500000Y-94140000D03*
%TO.P,Q1,3,E*%
%TO.N,GND (Buzzer)*%
X171230000Y-94140000D03*
%TD*%
D17*
%TO.P,U1,1,GPIO0*%
%TO.N,unconnected-(U1-GPIO0-Pad1)*%
X134755000Y-73355000D03*
D18*
X133855000Y-73355000D03*
D17*
%TO.P,U1,2,GPIO1*%
%TO.N,unconnected-(U1-GPIO1-Pad2)*%
X134755000Y-75895000D03*
D18*
X133855000Y-75895000D03*
D19*
%TO.P,U1,3,GND*%
%TO.N,unconnected-(U1-GND-Pad3)*%
X134755000Y-78435000D03*
D18*
X133855000Y-78435000D03*
D17*
%TO.P,U1,4,GPIO2*%
%TO.N,unconnected-(U1-GPIO2-Pad4)*%
X134755000Y-80975000D03*
D18*
X133855000Y-80975000D03*
D17*
%TO.P,U1,5,GPIO3*%
%TO.N,unconnected-(U1-GPIO3-Pad5)*%
X134755000Y-83515000D03*
D18*
X133855000Y-83515000D03*
D17*
%TO.P,U1,6,GPIO4*%
%TO.N,unconnected-(U1-GPIO4-Pad6)*%
X134755000Y-86055000D03*
D18*
X133855000Y-86055000D03*
D17*
%TO.P,U1,7,GPIO5*%
%TO.N,unconnected-(U1-GPIO5-Pad7)*%
X134755000Y-88595000D03*
D18*
X133855000Y-88595000D03*
D19*
%TO.P,U1,8,GND*%
%TO.N,unconnected-(U1-GND-Pad8)*%
X134755000Y-91135000D03*
D18*
X133855000Y-91135000D03*
D17*
%TO.P,U1,9,GPIO6*%
%TO.N,unconnected-(U1-GPIO6-Pad9)*%
X134755000Y-93675000D03*
D18*
X133855000Y-93675000D03*
D17*
%TO.P,U1,10,GPIO7*%
%TO.N,unconnected-(U1-GPIO7-Pad10)*%
X134755000Y-96215000D03*
D18*
X133855000Y-96215000D03*
D17*
%TO.P,U1,11,GPIO8*%
%TO.N,unconnected-(U1-GPIO8-Pad11)*%
X134755000Y-98755000D03*
D18*
X133855000Y-98755000D03*
D17*
%TO.P,U1,12,GPIO9*%
%TO.N,unconnected-(U1-GPIO9-Pad12)*%
X134755000Y-101295000D03*
D18*
X133855000Y-101295000D03*
D19*
%TO.P,U1,13,GND*%
%TO.N,unconnected-(U1-GND-Pad13)*%
X134755000Y-103835000D03*
D18*
X133855000Y-103835000D03*
D17*
%TO.P,U1,14,GPIO10*%
%TO.N,unconnected-(U1-GPIO10-Pad14)*%
X134755000Y-106375000D03*
D18*
X133855000Y-106375000D03*
D17*
%TO.P,U1,15,GPIO11*%
%TO.N,unconnected-(U1-GPIO11-Pad15)*%
X134755000Y-108915000D03*
D18*
X133855000Y-108915000D03*
D17*
%TO.P,U1,16,GPIO12*%
%TO.N,unconnected-(U1-GPIO12-Pad16)*%
X134755000Y-111455000D03*
D18*
X133855000Y-111455000D03*
D17*
%TO.P,U1,17,GPIO13*%
%TO.N,unconnected-(U1-GPIO13-Pad17)*%
X134755000Y-113995000D03*
D18*
X133855000Y-113995000D03*
D19*
%TO.P,U1,18,GND*%
%TO.N,unconnected-(U1-GND-Pad18)*%
X134755000Y-116535000D03*
D18*
X133855000Y-116535000D03*
D17*
%TO.P,U1,19,GPIO14*%
%TO.N,unconnected-(U1-GPIO14-Pad19)*%
X134755000Y-119075000D03*
D18*
X133855000Y-119075000D03*
D17*
%TO.P,U1,20,GPIO15*%
%TO.N,unconnected-(U1-GPIO15-Pad20)*%
X134755000Y-121615000D03*
D18*
X133855000Y-121615000D03*
D17*
%TO.P,U1,21,GPIO16*%
%TO.N,GP16 (Buzzer)*%
X152535000Y-121615000D03*
D18*
X153435000Y-121615000D03*
D17*
%TO.P,U1,22,GPIO17*%
%TO.N,GP17 (LED)*%
X152535000Y-119075000D03*
D18*
X153435000Y-119075000D03*
D19*
%TO.P,U1,23,GND*%
%TO.N,GND (Switch)*%
X152535000Y-116535000D03*
D18*
X153435000Y-116535000D03*
D17*
%TO.P,U1,24,GPIO18*%
X152535000Y-113995000D03*
D18*
X153435000Y-113995000D03*
D17*
%TO.P,U1,25,GPIO19*%
X152535000Y-111455000D03*
D18*
X153435000Y-111455000D03*
D17*
%TO.P,U1,26,GPIO20*%
%TO.N,unconnected-(U1-GPIO20-Pad26)*%
X152535000Y-108915000D03*
D18*
X153435000Y-108915000D03*
D17*
%TO.P,U1,27,GPIO21*%
%TO.N,unconnected-(U1-GPIO21-Pad27)*%
X152535000Y-106375000D03*
D18*
X153435000Y-106375000D03*
D19*
%TO.P,U1,28,GND*%
%TO.N,GND (LED)*%
X152535000Y-103835000D03*
D18*
X153435000Y-103835000D03*
D17*
%TO.P,U1,29,GPIO22*%
%TO.N,unconnected-(U1-GPIO22-Pad29)*%
X152535000Y-101295000D03*
D18*
X153435000Y-101295000D03*
D17*
%TO.P,U1,30,RUN*%
%TO.N,unconnected-(U1-RUN-Pad30)*%
X152535000Y-98755000D03*
D18*
X153435000Y-98755000D03*
D17*
%TO.P,U1,31,GPIO26_ADC0*%
%TO.N,unconnected-(U1-GPIO26_ADC0-Pad31)*%
X152535000Y-96215000D03*
D18*
X153435000Y-96215000D03*
D17*
%TO.P,U1,32,GPIO27_ADC1*%
%TO.N,unconnected-(U1-GPIO27_ADC1-Pad32)*%
X152535000Y-93675000D03*
D18*
X153435000Y-93675000D03*
D19*
%TO.P,U1,33,AGND*%
%TO.N,unconnected-(U1-AGND-Pad33)*%
X152535000Y-91135000D03*
D18*
X153435000Y-91135000D03*
D17*
%TO.P,U1,34,GPIO28_ADC2*%
%TO.N,unconnected-(U1-GPIO28_ADC2-Pad34)*%
X152535000Y-88595000D03*
D18*
X153435000Y-88595000D03*
D17*
%TO.P,U1,35,ADC_VREF*%
%TO.N,unconnected-(U1-ADC_VREF-Pad35)*%
X152535000Y-86055000D03*
D18*
X153435000Y-86055000D03*
D17*
%TO.P,U1,36,3V3*%
%TO.N,unconnected-(U1-3V3-Pad36)*%
X152535000Y-83515000D03*
D18*
X153435000Y-83515000D03*
D17*
%TO.P,U1,37,3V3_EN*%
%TO.N,unconnected-(U1-3V3_EN-Pad37)*%
X152535000Y-80975000D03*
D18*
X153435000Y-80975000D03*
D19*
%TO.P,U1,38,GND*%
%TO.N,GND (Buzzer)*%
X152535000Y-78435000D03*
D18*
X153435000Y-78435000D03*
D17*
%TO.P,U1,39,VSYS*%
%TO.N,VCC*%
X152535000Y-75895000D03*
D18*
X153435000Y-75895000D03*
D17*
%TO.P,U1,40,VBUS*%
%TO.N,unconnected-(U1-VBUS-Pad40)*%
X152535000Y-73355000D03*
D18*
X153435000Y-73355000D03*
D17*
%TO.P,U1,41,SWCLK*%
%TO.N,unconnected-(U1-SWCLK-Pad41)*%
X141105000Y-121385000D03*
D20*
X141105000Y-122285000D03*
D19*
%TO.P,U1,42,GND*%
%TO.N,unconnected-(U1-GND-Pad42)*%
X143645000Y-121385000D03*
D20*
X143645000Y-122285000D03*
D17*
%TO.P,U1,43,SWDIO*%
%TO.N,unconnected-(U1-SWDIO-Pad43)*%
X146185000Y-121385000D03*
D20*
X146185000Y-122285000D03*
%TD*%
D21*
%TO.P,BZ1,1,+*%
%TO.N,VCC*%
X181700000Y-85500000D03*
D22*
%TO.P,BZ1,2,-*%
%TO.N,Net-(BZ1--)*%
X189300000Y-85500000D03*
%TD*%
D11*
%TO.P,R2,1*%
%TO.N,GP16 (Buzzer)*%
X189500000Y-121620000D03*
D14*
%TO.P,R2,2*%
%TO.N,Net-(Q1-B)*%
X189500000Y-106380000D03*
%TD*%
D23*
%TO.N,GND (Switch)*%
X160170000Y-107920000D02*
X161500000Y-107920000D01*
X154095000Y-113995000D02*
X160170000Y-107920000D01*
X152535000Y-113995000D02*
X154095000Y-113995000D01*
X160040000Y-110460000D02*
X161500000Y-110460000D01*
X153965000Y-116535000D02*
X160040000Y-110460000D01*
X152535000Y-116535000D02*
X153965000Y-116535000D01*
%TO.N,GND (LED)*%
X174835000Y-103835000D02*
X152535000Y-103835000D01*
X184775000Y-119000000D02*
X184775000Y-113775000D01*
X184775000Y-113775000D02*
X174835000Y-103835000D01*
%TO.N,Net-(BZ1--)*%
X180660000Y-94140000D02*
X173770000Y-94140000D01*
X189300000Y-85500000D02*
X180660000Y-94140000D01*
%TO.N,VCC*%
X172095000Y-75895000D02*
X181700000Y-85500000D01*
D24*
X181700000Y-84644365D02*
X181700000Y-85500000D01*
D23*
X152535000Y-75895000D02*
X172095000Y-75895000D01*
%TO.N,Net-(D1-A)*%
X175620000Y-119000000D02*
X182235000Y-119000000D01*
D24*
%TO.N,GND (LED)*%
X152700000Y-104000000D02*
X152535000Y-103835000D01*
D23*
%TO.N,Net-(Q1-B)*%
X180880000Y-106380000D02*
X172500000Y-98000000D01*
D24*
X172500000Y-94745000D02*
X172500000Y-94140000D01*
D23*
X172500000Y-98000000D02*
X172500000Y-94745000D01*
X189500000Y-106380000D02*
X180880000Y-106380000D01*
%TO.N,GND (Buzzer)*%
X171230000Y-94140000D02*
X155525000Y-78435000D01*
D24*
X155525000Y-78435000D02*
X152535000Y-78435000D01*
%TO.N,GP17 (LED)*%
X160380000Y-119000000D02*
X160305000Y-119075000D01*
X152535000Y-119075000D02*
X153925000Y-119075000D01*
X153925000Y-119075000D02*
X154000000Y-119000000D01*
D23*
X160305000Y-119075000D02*
X152535000Y-119075000D01*
D24*
%TO.N,GP16 (Buzzer)*%
X189495000Y-121615000D02*
X189500000Y-121620000D01*
X155885000Y-121615000D02*
X155890000Y-121620000D01*
D23*
X186110000Y-125000000D02*
X189495000Y-121615000D01*
D24*
X152535000Y-121615000D02*
X155885000Y-121615000D01*
D23*
X155920000Y-125000000D02*
X186110000Y-125000000D01*
X152535000Y-121615000D02*
X155920000Y-125000000D01*
%TD*%
%TA.AperFunction,NonConductor*%
G36*
X195443039Y-65019685D02*
G01*
X195488794Y-65072489D01*
X195500000Y-65124000D01*
X195500000Y-128376000D01*
X195480315Y-128443039D01*
X195427511Y-128488794D01*
X195376000Y-128500000D01*
X125124000Y-128500000D01*
X125056961Y-128480315D01*
X125011206Y-128427511D01*
X125000000Y-128376000D01*
X125000000Y-122512870D01*
X131604500Y-122512870D01*
X131604501Y-122512876D01*
X131610908Y-122572483D01*
X131661202Y-122707328D01*
X131661206Y-122707335D01*
X131747452Y-122822544D01*
X131747455Y-122822547D01*
X131862664Y-122908793D01*
X131862671Y-122908797D01*
X131997517Y-122959091D01*
X131997516Y-122959091D01*
X132004444Y-122959835D01*
X132057127Y-122965500D01*
X134690611Y-122965499D01*
X134701419Y-122965971D01*
X134754999Y-122970659D01*
X134755000Y-122970659D01*
X134755001Y-122970659D01*
X134808580Y-122965971D01*
X134819388Y-122965499D01*
X135652871Y-122965499D01*
X135652872Y-122965499D01*
X135712483Y-122959091D01*
X135847331Y-122908796D01*
X135962546Y-122822546D01*
X136048796Y-122707331D01*
X136099091Y-122572483D01*
X136105500Y-122512873D01*
X136105499Y-121679383D01*
X136105971Y-121668576D01*
X136110659Y-121615000D01*
X136110659Y-121614999D01*
X136105971Y-121561421D01*
X136105499Y-121550613D01*
X136105499Y-121385001D01*
X139749341Y-121385001D01*
X139754028Y-121438574D01*
X139754500Y-121449381D01*
X139754500Y-124082870D01*
X139754501Y-124082876D01*
X139760908Y-124142483D01*
X139811202Y-124277328D01*
X139811206Y-124277335D01*
X139897452Y-124392544D01*
X139897455Y-124392547D01*
X140012664Y-124478793D01*
X140012671Y-124478797D01*
X140147517Y-124529091D01*
X140147516Y-124529091D01*
X140154444Y-124529835D01*
X140207127Y-124535500D01*
X142002872Y-124535499D01*
X142062483Y-124529091D01*
X142197331Y-124478796D01*
X142300690Y-124401421D01*
X142366152Y-124377004D01*
X142434425Y-124391855D01*
X142449303Y-124401416D01*
X142552665Y-124478793D01*
X142552668Y-124478795D01*
X142552671Y-124478797D01*
X142687517Y-124529091D01*
X142687516Y-124529091D01*
X142694444Y-124529835D01*
X142747127Y-124535500D01*
X144542872Y-124535499D01*
X144602483Y-124529091D01*
X144737331Y-124478796D01*
X144840690Y-124401421D01*
X144906152Y-124377004D01*
X144974425Y-124391855D01*
X144989303Y-124401416D01*
X145092665Y-124478793D01*
X145092668Y-124478795D01*
X145092671Y-124478797D01*
X145227517Y-124529091D01*
X145227516Y-124529091D01*
X145234444Y-124529835D01*
X145287127Y-124535500D01*
X147082872Y-124535499D01*
X147142483Y-124529091D01*
X147277331Y-124478796D01*
X147392546Y-124392546D01*
X147478796Y-124277331D01*
X147529091Y-124142483D01*
X147535500Y-124082873D01*
X147535499Y-121615002D01*
X151179341Y-121615002D01*
X151184028Y-121668576D01*
X151184500Y-121679383D01*
X151184500Y-122512870D01*
X151184501Y-122512876D01*
X151190908Y-122572483D01*
X151241202Y-122707328D01*
X151241206Y-122707335D01*
X151327452Y-122822544D01*
X151327455Y-122822547D01*
X151442664Y-122908793D01*
X151442671Y-122908797D01*
X151487618Y-122925561D01*
X151577517Y-122959091D01*
X151637127Y-122965500D01*
X152277795Y-122965499D01*
X152344834Y-122985183D01*
X152365476Y-123001818D01*
X155203072Y-125839414D01*
X155343212Y-125941232D01*
X155497555Y-126019873D01*
X155662299Y-126073402D01*
X155833389Y-126100500D01*
X155833390Y-126100500D01*
X186196610Y-126100500D01*
X186196611Y-126100500D01*
X186367701Y-126073402D01*
X186532445Y-126019873D01*
X186686788Y-125941232D01*
X186826928Y-125839414D01*
X189749664Y-122916676D01*
X189805248Y-122884585D01*
X189898961Y-122859475D01*
X189946486Y-122846742D01*
X189946489Y-122846740D01*
X189946496Y-122846739D01*
X190152734Y-122750568D01*
X190339139Y-122620047D01*
X190500047Y-122459139D01*
X190630568Y-122272734D01*
X190726739Y-122066496D01*
X190785635Y-121846692D01*
X190805468Y-121620000D01*
X190805030Y-121614999D01*
X190790541Y-121449387D01*
X190785635Y-121393308D01*
X190726739Y-121173504D01*
X190630568Y-120967266D01*
X190500047Y-120780861D01*
X190500045Y-120780858D01*
X190339141Y-120619954D01*
X190152734Y-120489432D01*
X190152732Y-120489431D01*
X189946497Y-120393261D01*
X189946488Y-120393258D01*
X189726697Y-120334366D01*
X189726693Y-120334365D01*
X189726692Y-120334365D01*
X189726691Y-120334364D01*
X189726686Y-120334364D01*
X189500002Y-120314532D01*
X189499998Y-120314532D01*
X189273313Y-120334364D01*
X189273302Y-120334366D01*
X189053511Y-120393258D01*
X189053502Y-120393261D01*
X188847267Y-120489431D01*
X188847265Y-120489432D01*
X188660858Y-120619954D01*
X188499954Y-120780858D01*
X188369432Y-120967265D01*
X188369431Y-120967267D01*
X188273260Y-121173504D01*
X188242733Y-121287430D01*
X188210640Y-121343016D01*
X185690477Y-123863181D01*
X185629154Y-123896666D01*
X185602796Y-123899500D01*
X156427204Y-123899500D01*
X156360165Y-123879815D01*
X156339523Y-123863181D01*
X155504390Y-123028048D01*
X155470905Y-122966725D01*
X155475889Y-122897033D01*
X155517758Y-122841101D01*
X155542546Y-122822546D01*
X155628796Y-122707331D01*
X155679091Y-122572483D01*
X155685500Y-122512873D01*
X155685500Y-122344500D01*
X155705185Y-122277461D01*
X155757989Y-122231706D01*
X155809500Y-122220500D01*
X155969055Y-122220500D01*
X155969057Y-122220500D01*
X156121785Y-122179577D01*
X156258716Y-122100519D01*
X156370519Y-121988716D01*
X156449577Y-121851785D01*
X156490500Y-121699057D01*
X156490500Y-121540943D01*
X156449577Y-121388215D01*
X156447721Y-121385001D01*
X156416785Y-121331418D01*
X156370519Y-121251284D01*
X156370515Y-121251280D01*
X156370512Y-121251276D01*
X156253717Y-121134481D01*
X156253716Y-121134480D01*
X156166904Y-121084360D01*
X156166904Y-121084359D01*
X156166900Y-121084358D01*
X156116785Y-121055423D01*
X155964057Y-121014499D01*
X155809499Y-121014499D01*
X155742460Y-120994814D01*
X155696705Y-120942010D01*
X155685499Y-120890499D01*
X155685499Y-120717129D01*
X155685498Y-120717123D01*
X155685497Y-120717116D01*
X155679091Y-120657517D01*
X155628796Y-120522669D01*
X155551421Y-120419309D01*
X155527004Y-120353848D01*
X155541855Y-120285575D01*
X155551422Y-120270689D01*
X155566585Y-120250433D01*
X155585486Y-120225187D01*
X155641421Y-120183317D01*
X155684751Y-120175500D01*
X159796132Y-120175500D01*
X159848536Y-120187117D01*
X159933504Y-120226739D01*
X160153308Y-120285635D01*
X160315230Y-120299801D01*
X160379998Y-120305468D01*
X160380000Y-120305468D01*
X160380002Y-120305468D01*
X160436673Y-120300509D01*
X160606692Y-120285635D01*
X160826496Y-120226739D01*
X161032734Y-120130568D01*
X161219139Y-120000047D01*
X161380047Y-119839139D01*
X161510568Y-119652734D01*
X161606739Y-119446496D01*
X161665635Y-119226692D01*
X161684539Y-119010616D01*
X161685468Y-119000001D01*
X161685468Y-118999998D01*
X161665635Y-118773313D01*
X161665635Y-118773308D01*
X161606739Y-118553504D01*
X161510568Y-118347266D01*
X161391437Y-118177128D01*
X161380045Y-118160858D01*
X161219141Y-117999954D01*
X161032734Y-117869432D01*
X161032732Y-117869431D01*
X160826497Y-117773261D01*
X160826488Y-117773258D01*
X160606697Y-117714366D01*
X160606693Y-117714365D01*
X160606692Y-117714365D01*
X160606691Y-117714364D01*
X160606686Y-117714364D01*
X160380002Y-117694532D01*
X160379998Y-117694532D01*
X160153313Y-117714364D01*
X160153302Y-117714366D01*
X159933511Y-117773258D01*
X159933502Y-117773261D01*
X159727267Y-117869431D01*
X159727265Y-117869432D01*
X159609239Y-117952075D01*
X159543033Y-117974402D01*
X159538116Y-117974500D01*
X155684751Y-117974500D01*
X155617712Y-117954815D01*
X155585485Y-117924812D01*
X155551422Y-117879311D01*
X155527004Y-117813847D01*
X155541855Y-117745574D01*
X155551411Y-117730702D01*
X155628796Y-117627331D01*
X155679091Y-117492483D01*
X155685500Y-117432873D01*
X155685499Y-116422202D01*
X155705183Y-116355164D01*
X155721813Y-116334527D01*
X160374754Y-111681586D01*
X160436075Y-111648103D01*
X160505766Y-111653087D01*
X160582183Y-111681588D01*
X160642517Y-111704091D01*
X160696157Y-111709858D01*
X160760703Y-111736594D01*
X160800552Y-111793986D01*
X160803047Y-111863811D01*
X160767395Y-111923900D01*
X160754022Y-111934721D01*
X160660856Y-111999956D01*
X160499954Y-112160858D01*
X160369432Y-112347265D01*
X160369431Y-112347267D01*
X160273261Y-112553502D01*
X160273258Y-112553511D01*
X160214366Y-112773302D01*
X160214364Y-112773313D01*
X160194532Y-112999998D01*
X160194532Y-113000001D01*
X160214364Y-113226686D01*
X160214366Y-113226697D01*
X160273258Y-113446488D01*
X160273261Y-113446497D01*
X160369431Y-113652732D01*
X160369432Y-113652734D01*
X160499954Y-113839141D01*
X160660858Y-114000045D01*
X160660861Y-114000047D01*
X160847266Y-114130568D01*
X161053504Y-114226739D01*
X161053509Y-114226740D01*
X161053511Y-114226741D01*
X161106415Y-114240916D01*
X161273308Y-114285635D01*
X161435230Y-114299801D01*
X161499998Y-114305468D01*
X161500000Y-114305468D01*
X161500002Y-114305468D01*
X161556673Y-114300509D01*
X161726692Y-114285635D01*
X161946496Y-114226739D01*
X162152734Y-114130568D01*
X162339139Y-114000047D01*
X162500047Y-113839139D01*
X162630568Y-113652734D01*
X162726739Y-113446496D01*
X162785635Y-113226692D01*
X162805468Y-113000000D01*
X162799832Y-112935586D01*
X162796953Y-112902669D01*
X162785635Y-112773308D01*
X162726739Y-112553504D01*
X162630568Y-112347266D01*
X162500047Y-112160861D01*
X162500045Y-112160858D01*
X162339141Y-111999954D01*
X162245978Y-111934721D01*
X162202353Y-111880144D01*
X162195159Y-111810646D01*
X162226682Y-111748291D01*
X162286911Y-111712877D01*
X162303842Y-111709857D01*
X162357483Y-111704091D01*
X162492331Y-111653796D01*
X162607546Y-111567546D01*
X162693796Y-111452331D01*
X162744091Y-111317483D01*
X162750500Y-111257873D01*
X162750499Y-109662128D01*
X162744091Y-109602517D01*
X162693796Y-109467669D01*
X162693795Y-109467668D01*
X162693793Y-109467664D01*
X162607547Y-109352455D01*
X162607544Y-109352452D01*
X162492335Y-109266206D01*
X162492328Y-109266202D01*
X162357482Y-109215908D01*
X162357483Y-109215908D01*
X162303846Y-109210142D01*
X162239295Y-109183404D01*
X162199446Y-109126012D01*
X162196953Y-109056187D01*
X162232605Y-108996098D01*
X162245972Y-108985282D01*
X162339139Y-108920047D01*
X162500047Y-108759139D01*
X162630568Y-108572734D01*
X162726739Y-108366496D01*
X162785635Y-108146692D01*
X162805468Y-107920000D01*
X162785635Y-107693308D01*
X162726739Y-107473504D01*
X162630568Y-107267266D01*
X162500047Y-107080861D01*
X162500045Y-107080858D01*
X162339141Y-106919954D01*
X162152734Y-106789432D01*
X162152732Y-106789431D01*
X161946497Y-106693261D01*
X161946488Y-106693258D01*
X161726697Y-106634366D01*
X161726693Y-106634365D01*
X161726692Y-106634365D01*
X161726691Y-106634364D01*
X161726686Y-106634364D01*
X161500002Y-106614532D01*
X161499998Y-106614532D01*
X161273313Y-106634364D01*
X161273302Y-106634366D01*
X161053511Y-106693258D01*
X161053502Y-106693261D01*
X160847267Y-106789431D01*
X160847265Y-106789432D01*
X160836351Y-106797075D01*
X160770144Y-106819402D01*
X160765228Y-106819500D01*
X160256610Y-106819500D01*
X160083389Y-106819500D01*
X160039269Y-106826488D01*
X159912298Y-106846598D01*
X159747549Y-106900128D01*
X159593211Y-106978768D01*
X159518937Y-107032732D01*
X159453072Y-107080586D01*
X159453070Y-107080588D01*
X159453069Y-107080588D01*
X155896925Y-110636731D01*
X155835602Y-110670216D01*
X155765910Y-110665232D01*
X155709977Y-110623360D01*
X155686479Y-110560361D01*
X155685854Y-110560429D01*
X155685590Y-110557977D01*
X155685560Y-110557896D01*
X155685529Y-110557413D01*
X155685499Y-110557133D01*
X155685499Y-110557128D01*
X155679091Y-110497517D01*
X155628796Y-110362669D01*
X155551421Y-110259309D01*
X155527004Y-110193848D01*
X155541855Y-110125575D01*
X155551416Y-110110696D01*
X155628796Y-110007331D01*
X155679091Y-109872483D01*
X155685500Y-109812873D01*
X155685499Y-108017128D01*
X155679091Y-107957517D01*
X155665098Y-107920001D01*
X155628797Y-107822671D01*
X155628795Y-107822668D01*
X155551421Y-107719309D01*
X155527004Y-107653848D01*
X155541855Y-107585575D01*
X155551416Y-107570696D01*
X155628796Y-107467331D01*
X155679091Y-107332483D01*
X155685500Y-107272873D01*
X155685499Y-105477128D01*
X155679091Y-105417517D01*
X155628796Y-105282669D01*
X155551421Y-105179309D01*
X155527004Y-105113848D01*
X155541855Y-105045575D01*
X155551422Y-105030689D01*
X155566585Y-105010433D01*
X155585486Y-104985187D01*
X155641421Y-104943317D01*
X155684751Y-104935500D01*
X174327796Y-104935500D01*
X174394835Y-104955185D01*
X174415477Y-104971819D01*
X183638181Y-114194523D01*
X183671666Y-114255846D01*
X183674500Y-114282204D01*
X183674500Y-117562819D01*
X183654815Y-117629858D01*
X183624812Y-117662085D01*
X183517452Y-117742455D01*
X183431206Y-117857664D01*
X183431203Y-117857670D01*
X183402544Y-117934508D01*
X183360672Y-117990441D01*
X183295208Y-118014858D01*
X183226935Y-118000006D01*
X183195135Y-117975158D01*
X183186784Y-117966087D01*
X183186778Y-117966082D01*
X183186777Y-117966081D01*
X183003634Y-117823535D01*
X183003628Y-117823531D01*
X182799504Y-117713064D01*
X182799495Y-117713061D01*
X182579984Y-117637702D01*
X182390906Y-117606151D01*
X182351049Y-117599500D01*
X182118951Y-117599500D01*
X182079094Y-117606151D01*
X181890015Y-117637702D01*
X181670504Y-117713061D01*
X181670495Y-117713064D01*
X181466371Y-117823531D01*
X181466365Y-117823535D01*
X181402360Y-117873353D01*
X181337366Y-117898996D01*
X181326198Y-117899500D01*
X176354772Y-117899500D01*
X176287733Y-117879815D01*
X176283649Y-117877075D01*
X176272734Y-117869432D01*
X176272732Y-117869431D01*
X176066497Y-117773261D01*
X176066488Y-117773258D01*
X175846697Y-117714366D01*
X175846693Y-117714365D01*
X175846692Y-117714365D01*
X175846691Y-117714364D01*
X175846686Y-117714364D01*
X175620002Y-117694532D01*
X175619998Y-117694532D01*
X175393313Y-117714364D01*
X175393302Y-117714366D01*
X175173511Y-117773258D01*
X175173502Y-117773261D01*
X174967267Y-117869431D01*
X174967265Y-117869432D01*
X174780858Y-117999954D01*
X174619954Y-118160858D01*
X174489432Y-118347265D01*
X174489431Y-118347267D01*
X174393261Y-118553502D01*
X174393258Y-118553511D01*
X174334366Y-118773302D01*
X174334364Y-118773313D01*
X174314532Y-118999998D01*
X174314532Y-119000001D01*
X174334364Y-119226686D01*
X174334366Y-119226697D01*
X174393258Y-119446488D01*
X174393261Y-119446497D01*
X174489431Y-119652732D01*
X174489432Y-119652734D01*
X174619954Y-119839141D01*
X174780858Y-120000045D01*
X174780861Y-120000047D01*
X174967266Y-120130568D01*
X175173504Y-120226739D01*
X175393308Y-120285635D01*
X175555230Y-120299801D01*
X175619998Y-120305468D01*
X175620000Y-120305468D01*
X175620002Y-120305468D01*
X175676673Y-120300509D01*
X175846692Y-120285635D01*
X176066496Y-120226739D01*
X176272734Y-120130568D01*
X176283649Y-120122924D01*
X176349856Y-120100598D01*
X176354772Y-120100500D01*
X181326198Y-120100500D01*
X181393237Y-120120185D01*
X181402360Y-120126647D01*
X181466365Y-120176464D01*
X181466371Y-120176468D01*
X181466374Y-120176470D01*
X181556395Y-120225187D01*
X181640471Y-120270687D01*
X181670497Y-120286936D01*
X181784487Y-120326068D01*
X181890015Y-120362297D01*
X181890017Y-120362297D01*
X181890019Y-120362298D01*
X182118951Y-120400500D01*
X182118952Y-120400500D01*
X182351048Y-120400500D01*
X182351049Y-120400500D01*
X182579981Y-120362298D01*
X182799503Y-120286936D01*
X183003626Y-120176470D01*
X183004873Y-120175500D01*
X183101107Y-120100598D01*
X183186784Y-120033913D01*
X183195130Y-120024846D01*
X183255010Y-119988854D01*
X183324849Y-119990949D01*
X183382468Y-120030469D01*
X183402544Y-120065491D01*
X183431203Y-120142330D01*
X183431206Y-120142335D01*
X183517452Y-120257544D01*
X183517455Y-120257547D01*
X183632664Y-120343793D01*
X183632671Y-120343797D01*
X183767517Y-120394091D01*
X183767516Y-120394091D01*
X183774444Y-120394835D01*
X183827127Y-120400500D01*
X185722872Y-120400499D01*
X185782483Y-120394091D01*
X185917331Y-120343796D01*
X186032546Y-120257546D01*
X186118796Y-120142331D01*
X186169091Y-120007483D01*
X186175500Y-119947873D01*
X186175499Y-118052128D01*
X186169091Y-117992517D01*
X186159233Y-117966087D01*
X186118797Y-117857671D01*
X186118793Y-117857664D01*
X186032547Y-117742455D01*
X185925188Y-117662085D01*
X185883318Y-117606151D01*
X185875500Y-117562819D01*
X185875500Y-113688389D01*
X185848402Y-113517302D01*
X185848402Y-113517299D01*
X185794873Y-113352555D01*
X185716232Y-113198212D01*
X185614414Y-113058072D01*
X185491928Y-112935586D01*
X175551928Y-102995586D01*
X175411788Y-102893768D01*
X175257445Y-102815127D01*
X175092701Y-102761598D01*
X175092699Y-102761597D01*
X175092698Y-102761597D01*
X174961271Y-102740781D01*
X174921611Y-102734500D01*
X174921610Y-102734500D01*
X155684751Y-102734500D01*
X155617712Y-102714815D01*
X155585485Y-102684812D01*
X155551422Y-102639311D01*
X155527004Y-102573847D01*
X155541855Y-102505574D01*
X155551411Y-102490702D01*
X155628796Y-102387331D01*
X155679091Y-102252483D01*
X155685500Y-102192873D01*
X155685499Y-100397128D01*
X155679091Y-100337517D01*
X155628796Y-100202669D01*
X155551421Y-100099309D01*
X155527004Y-100033848D01*
X155541855Y-99965575D01*
X155551416Y-99950696D01*
X155628796Y-99847331D01*
X155679091Y-99712483D01*
X155685500Y-99652873D01*
X155685499Y-97857128D01*
X155679091Y-97797517D01*
X155628796Y-97662669D01*
X155551421Y-97559309D01*
X155527004Y-97493848D01*
X155541855Y-97425575D01*
X155551416Y-97410696D01*
X155628796Y-97307331D01*
X155679091Y-97172483D01*
X155685500Y-97112873D01*
X155685499Y-95317128D01*
X155679091Y-95257517D01*
X155662637Y-95213402D01*
X155628797Y-95122671D01*
X155628795Y-95122668D01*
X155597775Y-95081231D01*
X155551421Y-95019309D01*
X155527004Y-94953848D01*
X155541855Y-94885575D01*
X155551416Y-94870696D01*
X155628796Y-94767331D01*
X155679091Y-94632483D01*
X155685500Y-94572873D01*
X155685499Y-92777128D01*
X155679091Y-92717517D01*
X155628796Y-92582669D01*
X155551421Y-92479309D01*
X155527004Y-92413848D01*
X155541855Y-92345575D01*
X155551416Y-92330696D01*
X155628796Y-92227331D01*
X155679091Y-92092483D01*
X155685500Y-92032873D01*
X155685499Y-90237128D01*
X155679091Y-90177517D01*
X155628796Y-90042669D01*
X155551421Y-89939309D01*
X155527004Y-89873848D01*
X155541855Y-89805575D01*
X155551416Y-89790696D01*
X155628796Y-89687331D01*
X155679091Y-89552483D01*
X155685500Y-89492873D01*
X155685499Y-87697128D01*
X155679091Y-87637517D01*
X155628796Y-87502669D01*
X155551421Y-87399309D01*
X155527004Y-87333848D01*
X155541855Y-87265575D01*
X155551416Y-87250696D01*
X155628796Y-87147331D01*
X155679091Y-87012483D01*
X155685500Y-86952873D01*
X155685499Y-85157128D01*
X155679091Y-85097517D01*
X155646866Y-85011118D01*
X155628797Y-84962671D01*
X155628795Y-84962668D01*
X155551421Y-84859309D01*
X155527004Y-84793848D01*
X155541855Y-84725575D01*
X155551416Y-84710696D01*
X155628796Y-84607331D01*
X155679091Y-84472483D01*
X155685500Y-84412873D01*
X155685499Y-82617128D01*
X155679091Y-82557517D01*
X155628796Y-82422669D01*
X155551421Y-82319309D01*
X155527004Y-82253848D01*
X155541855Y-82185575D01*
X155551416Y-82170696D01*
X155628796Y-82067331D01*
X155679091Y-81932483D01*
X155685500Y-81872873D01*
X155685499Y-80451202D01*
X155705184Y-80384164D01*
X155757987Y-80338409D01*
X155827146Y-80328465D01*
X155890702Y-80357490D01*
X155897180Y-80363522D01*
X170259082Y-94725424D01*
X170285962Y-94765652D01*
X170321212Y-94850752D01*
X170321217Y-94850762D01*
X170433441Y-95018718D01*
X170576281Y-95161558D01*
X170744237Y-95273782D01*
X170744241Y-95273784D01*
X170744244Y-95273786D01*
X170930873Y-95351091D01*
X171096777Y-95384091D01*
X171128992Y-95390499D01*
X171128996Y-95390500D01*
X171275500Y-95390500D01*
X171342539Y-95410185D01*
X171388294Y-95462989D01*
X171399500Y-95514499D01*
X171399500Y-97913389D01*
X171399500Y-98086611D01*
X171426598Y-98257701D01*
X171480127Y-98422445D01*
X171558768Y-98576788D01*
X171660586Y-98716928D01*
X180040586Y-107096928D01*
X180163072Y-107219414D01*
X180303212Y-107321232D01*
X180457555Y-107399873D01*
X180622299Y-107453402D01*
X180793389Y-107480500D01*
X180793390Y-107480500D01*
X180966611Y-107480500D01*
X188765228Y-107480500D01*
X188832267Y-107500185D01*
X188836340Y-107502917D01*
X188847266Y-107510568D01*
X189053504Y-107606739D01*
X189273308Y-107665635D01*
X189435230Y-107679801D01*
X189499998Y-107685468D01*
X189500000Y-107685468D01*
X189500002Y-107685468D01*
X189556673Y-107680509D01*
X189726692Y-107665635D01*
X189946496Y-107606739D01*
X190152734Y-107510568D01*
X190339139Y-107380047D01*
X190500047Y-107219139D01*
X190630568Y-107032734D01*
X190726739Y-106826496D01*
X190785635Y-106606692D01*
X190805468Y-106380000D01*
X190805030Y-106374999D01*
X190785635Y-106153313D01*
X190785635Y-106153308D01*
X190726739Y-105933504D01*
X190630568Y-105727266D01*
X190500047Y-105540861D01*
X190500045Y-105540858D01*
X190339141Y-105379954D01*
X190152734Y-105249432D01*
X190152732Y-105249431D01*
X189946497Y-105153261D01*
X189946488Y-105153258D01*
X189726697Y-105094366D01*
X189726693Y-105094365D01*
X189726692Y-105094365D01*
X189726691Y-105094364D01*
X189726686Y-105094364D01*
X189500002Y-105074532D01*
X189499998Y-105074532D01*
X189273313Y-105094364D01*
X189273302Y-105094366D01*
X189053511Y-105153258D01*
X189053502Y-105153261D01*
X188847267Y-105249431D01*
X188847265Y-105249432D01*
X188836351Y-105257075D01*
X188770144Y-105279402D01*
X188765228Y-105279500D01*
X181387204Y-105279500D01*
X181320165Y-105259815D01*
X181299523Y-105243181D01*
X173636819Y-97580477D01*
X173603334Y-97519154D01*
X173600500Y-97492796D01*
X173600500Y-95514499D01*
X173620185Y-95447460D01*
X173672989Y-95401705D01*
X173724500Y-95390499D01*
X174342871Y-95390499D01*
X174342872Y-95390499D01*
X174402483Y-95384091D01*
X174537331Y-95333796D01*
X174617494Y-95273786D01*
X174628920Y-95265233D01*
X174694385Y-95240816D01*
X174703231Y-95240500D01*
X180746610Y-95240500D01*
X180746611Y-95240500D01*
X180917701Y-95213402D01*
X181082445Y-95159873D01*
X181236788Y-95081232D01*
X181376928Y-94979414D01*
X189319523Y-87036819D01*
X189380846Y-87003334D01*
X189407204Y-87000500D01*
X189424335Y-87000500D01*
X189669614Y-86959571D01*
X189904810Y-86878828D01*
X190123509Y-86760474D01*
X190319744Y-86607738D01*
X190488164Y-86424785D01*
X190624173Y-86216607D01*
X190724063Y-85988881D01*
X190785108Y-85747821D01*
X190801016Y-85555842D01*
X190805643Y-85500005D01*
X190805643Y-85499994D01*
X190785109Y-85252187D01*
X190785107Y-85252175D01*
X190724063Y-85011118D01*
X190624173Y-84783393D01*
X190488166Y-84575217D01*
X190466557Y-84551744D01*
X190319744Y-84392262D01*
X190123509Y-84239526D01*
X190123507Y-84239525D01*
X190123506Y-84239524D01*
X189904811Y-84121172D01*
X189904802Y-84121169D01*
X189669616Y-84040429D01*
X189424335Y-83999500D01*
X189175665Y-83999500D01*
X188930383Y-84040429D01*
X188695197Y-84121169D01*
X188695188Y-84121172D01*
X188476493Y-84239524D01*
X188280257Y-84392261D01*
X188111833Y-84575217D01*
X187975826Y-84783393D01*
X187875936Y-85011118D01*
X187814892Y-85252175D01*
X187814890Y-85252187D01*
X187802690Y-85399420D01*
X187777537Y-85464605D01*
X187766795Y-85476861D01*
X180240477Y-93003181D01*
X180179154Y-93036666D01*
X180152796Y-93039500D01*
X174703231Y-93039500D01*
X174636192Y-93019815D01*
X174628920Y-93014767D01*
X174537331Y-92946204D01*
X174537328Y-92946202D01*
X174402482Y-92895908D01*
X174402483Y-92895908D01*
X174342883Y-92889501D01*
X174342881Y-92889500D01*
X174342873Y-92889500D01*
X174342864Y-92889500D01*
X173197129Y-92889500D01*
X173197123Y-92889501D01*
X173137516Y-92895908D01*
X173002672Y-92946202D01*
X173002665Y-92946206D01*
X173001556Y-92947037D01*
X173000258Y-92947520D01*
X172994887Y-92950454D01*
X172994465Y-92949681D01*
X172936090Y-92971449D01*
X172879800Y-92962325D01*
X172799127Y-92928909D01*
X172799119Y-92928907D01*
X172601007Y-92889500D01*
X172601003Y-92889500D01*
X172398997Y-92889500D01*
X172398992Y-92889500D01*
X172200880Y-92928907D01*
X172200872Y-92928909D01*
X172014244Y-93006213D01*
X171933891Y-93059904D01*
X171867213Y-93080782D01*
X171799833Y-93062297D01*
X171796109Y-93059904D01*
X171715755Y-93006213D01*
X171630652Y-92970962D01*
X171590424Y-92944082D01*
X156241930Y-77595588D01*
X156241928Y-77595586D01*
X156101788Y-77493768D01*
X155947445Y-77415127D01*
X155782701Y-77361598D01*
X155782699Y-77361597D01*
X155782698Y-77361597D01*
X155673877Y-77344362D01*
X155610743Y-77314433D01*
X155594012Y-77296205D01*
X155551419Y-77239308D01*
X155527004Y-77173847D01*
X155541856Y-77105574D01*
X155551422Y-77090689D01*
X155566585Y-77070433D01*
X155585486Y-77045187D01*
X155641421Y-77003317D01*
X155684751Y-76995500D01*
X171587796Y-76995500D01*
X171654835Y-77015185D01*
X171675477Y-77031819D01*
X180163181Y-85519523D01*
X180196666Y-85580846D01*
X180199500Y-85607204D01*
X180199500Y-86547870D01*
X180199501Y-86547876D01*
X180205908Y-86607483D01*
X180256202Y-86742328D01*
X180256206Y-86742335D01*
X180342452Y-86857544D01*
X180342455Y-86857547D01*
X180457664Y-86943793D01*
X180457671Y-86943797D01*
X180592517Y-86994091D01*
X180592516Y-86994091D01*
X180599444Y-86994835D01*
X180652127Y-87000500D01*
X182747872Y-87000499D01*
X182807483Y-86994091D01*
X182942331Y-86943796D01*
X183057546Y-86857546D01*
X183143796Y-86742331D01*
X183194091Y-86607483D01*
X183200500Y-86547873D01*
X183200499Y-84452128D01*
X183194091Y-84392517D01*
X183143796Y-84257669D01*
X183143795Y-84257668D01*
X183143793Y-84257664D01*
X183057547Y-84142455D01*
X183057544Y-84142452D01*
X182942335Y-84056206D01*
X182942328Y-84056202D01*
X182807482Y-84005908D01*
X182807483Y-84005908D01*
X182747883Y-83999501D01*
X182747881Y-83999500D01*
X182747873Y-83999500D01*
X182747865Y-83999500D01*
X181807204Y-83999500D01*
X181740165Y-83979815D01*
X181719523Y-83963181D01*
X172811930Y-75055588D01*
X172811928Y-75055586D01*
X172671788Y-74953768D01*
X172517445Y-74875127D01*
X172352701Y-74821598D01*
X172352699Y-74821597D01*
X172352698Y-74821597D01*
X172221271Y-74800781D01*
X172181611Y-74794500D01*
X172181610Y-74794500D01*
X155684751Y-74794500D01*
X155617712Y-74774815D01*
X155585485Y-74744812D01*
X155551422Y-74699311D01*
X155527004Y-74633847D01*
X155541855Y-74565574D01*
X155551411Y-74550702D01*
X155628796Y-74447331D01*
X155679091Y-74312483D01*
X155685500Y-74252873D01*
X155685499Y-72457128D01*
X155679091Y-72397517D01*
X155645901Y-72308531D01*
X155628797Y-72262671D01*
X155628793Y-72262664D01*
X155542547Y-72147455D01*
X155542544Y-72147452D01*
X155427335Y-72061206D01*
X155427328Y-72061202D01*
X155292482Y-72010908D01*
X155292483Y-72010908D01*
X155232883Y-72004501D01*
X155232881Y-72004500D01*
X155232873Y-72004500D01*
X155232865Y-72004500D01*
X152599385Y-72004500D01*
X152588578Y-72004028D01*
X152535001Y-71999341D01*
X152534997Y-71999341D01*
X152481419Y-72004028D01*
X152470613Y-72004500D01*
X151637129Y-72004500D01*
X151637123Y-72004501D01*
X151577516Y-72010908D01*
X151442671Y-72061202D01*
X151442664Y-72061206D01*
X151327455Y-72147452D01*
X151327452Y-72147455D01*
X151241206Y-72262664D01*
X151241202Y-72262671D01*
X151190908Y-72397517D01*
X151185149Y-72451087D01*
X151184501Y-72457123D01*
X151184500Y-72457135D01*
X151184500Y-73290616D01*
X151184028Y-73301423D01*
X151179341Y-73354997D01*
X151179341Y-73355002D01*
X151184028Y-73408576D01*
X151184500Y-73419383D01*
X151184500Y-74252870D01*
X151184501Y-74252876D01*
X151190908Y-74312483D01*
X151241202Y-74447328D01*
X151241203Y-74447330D01*
X151241204Y-74447331D01*
X151318576Y-74550687D01*
X151318578Y-74550689D01*
X151342995Y-74616153D01*
X151328144Y-74684426D01*
X151318578Y-74699311D01*
X151241203Y-74802669D01*
X151241202Y-74802671D01*
X151190908Y-74937517D01*
X151184501Y-74997116D01*
X151184501Y-74997123D01*
X151184500Y-74997135D01*
X151184500Y-75830616D01*
X151184028Y-75841423D01*
X151179341Y-75894997D01*
X151179341Y-75895002D01*
X151184028Y-75948576D01*
X151184500Y-75959383D01*
X151184500Y-76792870D01*
X151184501Y-76792876D01*
X151190908Y-76852483D01*
X151241202Y-76987328D01*
X151241203Y-76987330D01*
X151274508Y-77031819D01*
X151318576Y-77090687D01*
X151318578Y-77090689D01*
X151342995Y-77156153D01*
X151328144Y-77224426D01*
X151318578Y-77239311D01*
X151241203Y-77342669D01*
X151241202Y-77342671D01*
X151190908Y-77477517D01*
X151184501Y-77537116D01*
X151184501Y-77537123D01*
X151184500Y-77537135D01*
X151184500Y-79332870D01*
X151184501Y-79332876D01*
X151190908Y-79392483D01*
X151241202Y-79527328D01*
X151241203Y-79527330D01*
X151318578Y-79630689D01*
X151342995Y-79696153D01*
X151328144Y-79764426D01*
X151318578Y-79779311D01*
X151241203Y-79882669D01*
X151241202Y-79882671D01*
X151190908Y-80017517D01*
X151184501Y-80077116D01*
X151184501Y-80077123D01*
X151184500Y-80077135D01*
X151184500Y-80910616D01*
X151184028Y-80921423D01*
X151179341Y-80974997D01*
X151179341Y-80975002D01*
X151184028Y-81028576D01*
X151184500Y-81039383D01*
X151184500Y-81872870D01*
X151184501Y-81872876D01*
X151190908Y-81932483D01*
X151241202Y-82067328D01*
X151241203Y-82067330D01*
X151318578Y-82170689D01*
X151342995Y-82236153D01*
X151328144Y-82304426D01*
X151318578Y-82319311D01*
X151241203Y-82422669D01*
X151241202Y-82422671D01*
X151190908Y-82557517D01*
X151184501Y-82617116D01*
X151184501Y-82617123D01*
X151184500Y-82617135D01*
X151184500Y-83450616D01*
X151184028Y-83461423D01*
X151179341Y-83514997D01*
X151179341Y-83515002D01*
X151184028Y-83568576D01*
X151184500Y-83579383D01*
X151184500Y-84412870D01*
X151184501Y-84412876D01*
X151190908Y-84472483D01*
X151241202Y-84607328D01*
X151241203Y-84607330D01*
X151318578Y-84710689D01*
X151342995Y-84776153D01*
X151328144Y-84844426D01*
X151318578Y-84859311D01*
X151241203Y-84962669D01*
X151241202Y-84962671D01*
X151190908Y-85097517D01*
X151184501Y-85157116D01*
X151184501Y-85157123D01*
X151184500Y-85157135D01*
X151184500Y-85990616D01*
X151184028Y-86001423D01*
X151179341Y-86054997D01*
X151179341Y-86055002D01*
X151184028Y-86108576D01*
X151184500Y-86119383D01*
X151184500Y-86952870D01*
X151184501Y-86952876D01*
X151190908Y-87012483D01*
X151241202Y-87147328D01*
X151241203Y-87147330D01*
X151318578Y-87250689D01*
X151342995Y-87316153D01*
X151328144Y-87384426D01*
X151318578Y-87399311D01*
X151241203Y-87502669D01*
X151241202Y-87502671D01*
X151190908Y-87637517D01*
X151184501Y-87697116D01*
X151184501Y-87697123D01*
X151184500Y-87697135D01*
X151184500Y-88530616D01*
X151184028Y-88541423D01*
X151179341Y-88594997D01*
X151179341Y-88595002D01*
X151184028Y-88648576D01*
X151184500Y-88659383D01*
X151184500Y-89492870D01*
X151184501Y-89492876D01*
X151190908Y-89552483D01*
X151241202Y-89687328D01*
X151241203Y-89687330D01*
X151318578Y-89790689D01*
X151342995Y-89856153D01*
X151328144Y-89924426D01*
X151318578Y-89939311D01*
X151241203Y-90042669D01*
X151241202Y-90042671D01*
X151190908Y-90177517D01*
X151184501Y-90237116D01*
X151184501Y-90237123D01*
X151184500Y-90237135D01*
X151184500Y-92032870D01*
X151184501Y-92032876D01*
X151190908Y-92092483D01*
X151241202Y-92227328D01*
X151241203Y-92227330D01*
X151318578Y-92330689D01*
X151342995Y-92396153D01*
X151328144Y-92464426D01*
X151318578Y-92479311D01*
X151241203Y-92582669D01*
X151241202Y-92582671D01*
X151190908Y-92717517D01*
X151184501Y-92777116D01*
X151184501Y-92777123D01*
X151184500Y-92777135D01*
X151184500Y-93610616D01*
X151184028Y-93621423D01*
X151179341Y-93674997D01*
X151179341Y-93675002D01*
X151184028Y-93728576D01*
X151184500Y-93739383D01*
X151184500Y-94572870D01*
X151184501Y-94572876D01*
X151190908Y-94632483D01*
X151241202Y-94767328D01*
X151241203Y-94767330D01*
X151241204Y-94767331D01*
X151303660Y-94850762D01*
X151318578Y-94870689D01*
X151342995Y-94936153D01*
X151328144Y-95004426D01*
X151318578Y-95019311D01*
X151241203Y-95122669D01*
X151241202Y-95122671D01*
X151190908Y-95257517D01*
X151184501Y-95317116D01*
X151184501Y-95317123D01*
X151184500Y-95317135D01*
X151184500Y-96150616D01*
X151184028Y-96161423D01*
X151179341Y-96214997D01*
X151179341Y-96215002D01*
X151184028Y-96268576D01*
X151184500Y-96279383D01*
X151184500Y-97112870D01*
X151184501Y-97112876D01*
X151190908Y-97172483D01*
X151241202Y-97307328D01*
X151241203Y-97307330D01*
X151318578Y-97410689D01*
X151342995Y-97476153D01*
X151328144Y-97544426D01*
X151318578Y-97559311D01*
X151241203Y-97662669D01*
X151241202Y-97662671D01*
X151190908Y-97797517D01*
X151184501Y-97857116D01*
X151184501Y-97857123D01*
X151184500Y-97857135D01*
X151184500Y-98690616D01*
X151184028Y-98701423D01*
X151179341Y-98754997D01*
X151179341Y-98755002D01*
X151184028Y-98808576D01*
X151184500Y-98819383D01*
X151184500Y-99652870D01*
X151184501Y-99652876D01*
X151190908Y-99712483D01*
X151241202Y-99847328D01*
X151241203Y-99847330D01*
X151318578Y-99950689D01*
X151342995Y-100016153D01*
X151328144Y-100084426D01*
X151318578Y-100099311D01*
X151241203Y-100202669D01*
X151241202Y-100202671D01*
X151190908Y-100337517D01*
X151184501Y-100397116D01*
X151184501Y-100397123D01*
X151184500Y-100397135D01*
X151184500Y-101230616D01*
X151184028Y-101241423D01*
X151179341Y-101294997D01*
X151179341Y-101295002D01*
X151184028Y-101348576D01*
X151184500Y-101359383D01*
X151184500Y-102192870D01*
X151184501Y-102192876D01*
X151190908Y-102252483D01*
X151241202Y-102387328D01*
X151241203Y-102387330D01*
X151241204Y-102387331D01*
X151318576Y-102490687D01*
X151318578Y-102490689D01*
X151342995Y-102556153D01*
X151328144Y-102624426D01*
X151318578Y-102639311D01*
X151241203Y-102742669D01*
X151241202Y-102742671D01*
X151190908Y-102877517D01*
X151184501Y-102937116D01*
X151184501Y-102937123D01*
X151184500Y-102937135D01*
X151184500Y-104732870D01*
X151184501Y-104732876D01*
X151190908Y-104792483D01*
X151241202Y-104927328D01*
X151241203Y-104927330D01*
X151274508Y-104971819D01*
X151318576Y-105030687D01*
X151318578Y-105030689D01*
X151342995Y-105096153D01*
X151328144Y-105164426D01*
X151318578Y-105179311D01*
X151241203Y-105282669D01*
X151241202Y-105282671D01*
X151190908Y-105417517D01*
X151184501Y-105477116D01*
X151184501Y-105477123D01*
X151184500Y-105477135D01*
X151184500Y-106310616D01*
X151184028Y-106321423D01*
X151179341Y-106374997D01*
X151179341Y-106375002D01*
X151184028Y-106428576D01*
X151184500Y-106439383D01*
X151184500Y-107272870D01*
X151184501Y-107272876D01*
X151190908Y-107332483D01*
X151241202Y-107467328D01*
X151241203Y-107467330D01*
X151318578Y-107570689D01*
X151342995Y-107636153D01*
X151328144Y-107704426D01*
X151318578Y-107719311D01*
X151241203Y-107822669D01*
X151241202Y-107822671D01*
X151190908Y-107957517D01*
X151184501Y-108017116D01*
X151184501Y-108017123D01*
X151184500Y-108017135D01*
X151184500Y-108850616D01*
X151184028Y-108861423D01*
X151179341Y-108914997D01*
X151179341Y-108915002D01*
X151184028Y-108968576D01*
X151184500Y-108979383D01*
X151184500Y-109812870D01*
X151184501Y-109812876D01*
X151190908Y-109872483D01*
X151241202Y-110007328D01*
X151241203Y-110007330D01*
X151318578Y-110110689D01*
X151342995Y-110176153D01*
X151328144Y-110244426D01*
X151318578Y-110259311D01*
X151241203Y-110362669D01*
X151241202Y-110362671D01*
X151190908Y-110497517D01*
X151184501Y-110557116D01*
X151184501Y-110557123D01*
X151184500Y-110557135D01*
X151184500Y-111390616D01*
X151184028Y-111401423D01*
X151179341Y-111454997D01*
X151179341Y-111455002D01*
X151184028Y-111508576D01*
X151184500Y-111519383D01*
X151184500Y-112352870D01*
X151184501Y-112352876D01*
X151190908Y-112412483D01*
X151241202Y-112547328D01*
X151241203Y-112547330D01*
X151318578Y-112650689D01*
X151342995Y-112716153D01*
X151328144Y-112784426D01*
X151318578Y-112799311D01*
X151241203Y-112902669D01*
X151241202Y-112902671D01*
X151190908Y-113037517D01*
X151184501Y-113097116D01*
X151184501Y-113097123D01*
X151184500Y-113097135D01*
X151184500Y-113930616D01*
X151184028Y-113941423D01*
X151179341Y-113994997D01*
X151179341Y-113995002D01*
X151184028Y-114048576D01*
X151184500Y-114059383D01*
X151184500Y-114892870D01*
X151184501Y-114892876D01*
X151190908Y-114952483D01*
X151241202Y-115087328D01*
X151241203Y-115087330D01*
X151318578Y-115190689D01*
X151342995Y-115256153D01*
X151328144Y-115324426D01*
X151318578Y-115339311D01*
X151241203Y-115442669D01*
X151241202Y-115442671D01*
X151190908Y-115577517D01*
X151184501Y-115637116D01*
X151184501Y-115637123D01*
X151184500Y-115637135D01*
X151184500Y-117432870D01*
X151184501Y-117432876D01*
X151190908Y-117492483D01*
X151241202Y-117627328D01*
X151241203Y-117627330D01*
X151262818Y-117656204D01*
X151318576Y-117730687D01*
X151318578Y-117730689D01*
X151342995Y-117796153D01*
X151328144Y-117864426D01*
X151318578Y-117879311D01*
X151241203Y-117982669D01*
X151241202Y-117982671D01*
X151190908Y-118117517D01*
X151184501Y-118177116D01*
X151184501Y-118177123D01*
X151184500Y-118177135D01*
X151184500Y-119010616D01*
X151184028Y-119021423D01*
X151179341Y-119074997D01*
X151179341Y-119075002D01*
X151184028Y-119128576D01*
X151184500Y-119139383D01*
X151184500Y-119972870D01*
X151184501Y-119972876D01*
X151190908Y-120032483D01*
X151241202Y-120167328D01*
X151241203Y-120167330D01*
X151260416Y-120192995D01*
X151318576Y-120270687D01*
X151318578Y-120270689D01*
X151342995Y-120336153D01*
X151328144Y-120404426D01*
X151318578Y-120419311D01*
X151241203Y-120522669D01*
X151241202Y-120522671D01*
X151190908Y-120657517D01*
X151184501Y-120717116D01*
X151184501Y-120717123D01*
X151184500Y-120717135D01*
X151184500Y-121550616D01*
X151184028Y-121561423D01*
X151179341Y-121614997D01*
X151179341Y-121615002D01*
X147535499Y-121615002D01*
X147535499Y-121449381D01*
X147535971Y-121438578D01*
X147540659Y-121385000D01*
X147540659Y-121384999D01*
X147535971Y-121331418D01*
X147535499Y-121320610D01*
X147535499Y-120487129D01*
X147535498Y-120487123D01*
X147535497Y-120487116D01*
X147529091Y-120427517D01*
X147526030Y-120419311D01*
X147478797Y-120292671D01*
X147478793Y-120292664D01*
X147392547Y-120177455D01*
X147392544Y-120177452D01*
X147277335Y-120091206D01*
X147277328Y-120091202D01*
X147142482Y-120040908D01*
X147142483Y-120040908D01*
X147082883Y-120034501D01*
X147082881Y-120034500D01*
X147082873Y-120034500D01*
X147082865Y-120034500D01*
X146249383Y-120034500D01*
X146238576Y-120034028D01*
X146185002Y-120029341D01*
X146184999Y-120029341D01*
X146149865Y-120032414D01*
X146131421Y-120034028D01*
X146120616Y-120034500D01*
X145287129Y-120034500D01*
X145287123Y-120034501D01*
X145227516Y-120040908D01*
X145092671Y-120091202D01*
X145092669Y-120091203D01*
X144989311Y-120168578D01*
X144923847Y-120192995D01*
X144855574Y-120178144D01*
X144840689Y-120168578D01*
X144737330Y-120091203D01*
X144737328Y-120091202D01*
X144602482Y-120040908D01*
X144602483Y-120040908D01*
X144542883Y-120034501D01*
X144542881Y-120034500D01*
X144542873Y-120034500D01*
X144542864Y-120034500D01*
X142747129Y-120034500D01*
X142747123Y-120034501D01*
X142687516Y-120040908D01*
X142552671Y-120091202D01*
X142552669Y-120091203D01*
X142449311Y-120168578D01*
X142383847Y-120192995D01*
X142315574Y-120178144D01*
X142300689Y-120168578D01*
X142197330Y-120091203D01*
X142197328Y-120091202D01*
X142062482Y-120040908D01*
X142062483Y-120040908D01*
X142002883Y-120034501D01*
X142002881Y-120034500D01*
X142002873Y-120034500D01*
X142002865Y-120034500D01*
X141169383Y-120034500D01*
X141158576Y-120034028D01*
X141105002Y-120029341D01*
X141104999Y-120029341D01*
X141069865Y-120032414D01*
X141051421Y-120034028D01*
X141040616Y-120034500D01*
X140207129Y-120034500D01*
X140207123Y-120034501D01*
X140147516Y-120040908D01*
X140012671Y-120091202D01*
X140012664Y-120091206D01*
X139897455Y-120177452D01*
X139897452Y-120177455D01*
X139811206Y-120292664D01*
X139811202Y-120292671D01*
X139760908Y-120427517D01*
X139754501Y-120487116D01*
X139754501Y-120487123D01*
X139754500Y-120487135D01*
X139754500Y-121320618D01*
X139754028Y-121331425D01*
X139749341Y-121384997D01*
X139749341Y-121385001D01*
X136105499Y-121385001D01*
X136105499Y-120717129D01*
X136105498Y-120717123D01*
X136105497Y-120717116D01*
X136099091Y-120657517D01*
X136048796Y-120522669D01*
X135971421Y-120419309D01*
X135947004Y-120353848D01*
X135961855Y-120285575D01*
X135971416Y-120270696D01*
X136048796Y-120167331D01*
X136099091Y-120032483D01*
X136105500Y-119972873D01*
X136105499Y-119139383D01*
X136105971Y-119128576D01*
X136110659Y-119075000D01*
X136110659Y-119074999D01*
X136105971Y-119021421D01*
X136105499Y-119010613D01*
X136105499Y-118177129D01*
X136105498Y-118177123D01*
X136105497Y-118177116D01*
X136099091Y-118117517D01*
X136055262Y-118000006D01*
X136048797Y-117982671D01*
X136048795Y-117982668D01*
X136043170Y-117975154D01*
X135971421Y-117879309D01*
X135947004Y-117813848D01*
X135961855Y-117745575D01*
X135971416Y-117730696D01*
X136048796Y-117627331D01*
X136099091Y-117492483D01*
X136105500Y-117432873D01*
X136105499Y-115637128D01*
X136099091Y-115577517D01*
X136048796Y-115442669D01*
X135971421Y-115339309D01*
X135947004Y-115273848D01*
X135961855Y-115205575D01*
X135971416Y-115190696D01*
X136048796Y-115087331D01*
X136099091Y-114952483D01*
X136105500Y-114892873D01*
X136105499Y-114059383D01*
X136105971Y-114048576D01*
X136110659Y-113995000D01*
X136110659Y-113994999D01*
X136105971Y-113941421D01*
X136105499Y-113930613D01*
X136105499Y-113097129D01*
X136105498Y-113097123D01*
X136105497Y-113097116D01*
X136099091Y-113037517D01*
X136085098Y-113000001D01*
X136048797Y-112902671D01*
X136048795Y-112902668D01*
X135971421Y-112799309D01*
X135947004Y-112733848D01*
X135961855Y-112665575D01*
X135971416Y-112650696D01*
X136048796Y-112547331D01*
X136099091Y-112412483D01*
X136105500Y-112352873D01*
X136105499Y-111519383D01*
X136105971Y-111508576D01*
X136110659Y-111455000D01*
X136110659Y-111454999D01*
X136105971Y-111401421D01*
X136105499Y-111390613D01*
X136105499Y-110557129D01*
X136105498Y-110557123D01*
X136105497Y-110557116D01*
X136099091Y-110497517D01*
X136048796Y-110362669D01*
X135971421Y-110259309D01*
X135947004Y-110193848D01*
X135961855Y-110125575D01*
X135971416Y-110110696D01*
X136048796Y-110007331D01*
X136099091Y-109872483D01*
X136105500Y-109812873D01*
X136105499Y-108979383D01*
X136105971Y-108968576D01*
X136110659Y-108915000D01*
X136110659Y-108914999D01*
X136105971Y-108861421D01*
X136105499Y-108850613D01*
X136105499Y-108017129D01*
X136105498Y-108017123D01*
X136105497Y-108017116D01*
X136099091Y-107957517D01*
X136085098Y-107920001D01*
X136048797Y-107822671D01*
X136048795Y-107822668D01*
X135971421Y-107719309D01*
X135947004Y-107653848D01*
X135961855Y-107585575D01*
X135971416Y-107570696D01*
X136048796Y-107467331D01*
X136099091Y-107332483D01*
X136105500Y-107272873D01*
X136105499Y-106439383D01*
X136105971Y-106428576D01*
X136110659Y-106375000D01*
X136110659Y-106374999D01*
X136105971Y-106321421D01*
X136105499Y-106310613D01*
X136105499Y-105477129D01*
X136105498Y-105477123D01*
X136105497Y-105477116D01*
X136099091Y-105417517D01*
X136048796Y-105282669D01*
X135971421Y-105179309D01*
X135947004Y-105113848D01*
X135961855Y-105045575D01*
X135971416Y-105030696D01*
X136048796Y-104927331D01*
X136099091Y-104792483D01*
X136105500Y-104732873D01*
X136105499Y-102937128D01*
X136099091Y-102877517D01*
X136075821Y-102815128D01*
X136048797Y-102742671D01*
X136048795Y-102742668D01*
X135971421Y-102639309D01*
X135947004Y-102573848D01*
X135961855Y-102505575D01*
X135971416Y-102490696D01*
X136048796Y-102387331D01*
X136099091Y-102252483D01*
X136105500Y-102192873D01*
X136105499Y-101359383D01*
X136105971Y-101348576D01*
X136110659Y-101295000D01*
X136110659Y-101294999D01*
X136105971Y-101241421D01*
X136105499Y-101230613D01*
X136105499Y-100397129D01*
X136105498Y-100397123D01*
X136105497Y-100397116D01*
X136099091Y-100337517D01*
X136048796Y-100202669D01*
X135971421Y-100099309D01*
X135947004Y-100033848D01*
X135961855Y-99965575D01*
X135971416Y-99950696D01*
X136048796Y-99847331D01*
X136099091Y-99712483D01*
X136105500Y-99652873D01*
X136105499Y-98819383D01*
X136105971Y-98808576D01*
X136110659Y-98755000D01*
X136110659Y-98754999D01*
X136105971Y-98701421D01*
X136105499Y-98690613D01*
X136105499Y-97857129D01*
X136105498Y-97857123D01*
X136105497Y-97857116D01*
X136099091Y-97797517D01*
X136048796Y-97662669D01*
X135971421Y-97559309D01*
X135947004Y-97493848D01*
X135961855Y-97425575D01*
X135971416Y-97410696D01*
X136048796Y-97307331D01*
X136099091Y-97172483D01*
X136105500Y-97112873D01*
X136105499Y-96279383D01*
X136105971Y-96268576D01*
X136110659Y-96215000D01*
X136110659Y-96214999D01*
X136105971Y-96161421D01*
X136105499Y-96150613D01*
X136105499Y-95317129D01*
X136105498Y-95317123D01*
X136105497Y-95317116D01*
X136099091Y-95257517D01*
X136082637Y-95213402D01*
X136048797Y-95122671D01*
X136048795Y-95122668D01*
X136017775Y-95081231D01*
X135971421Y-95019309D01*
X135947004Y-94953848D01*
X135961855Y-94885575D01*
X135971416Y-94870696D01*
X136048796Y-94767331D01*
X136099091Y-94632483D01*
X136105500Y-94572873D01*
X136105499Y-93739383D01*
X136105971Y-93728576D01*
X136110659Y-93675000D01*
X136110659Y-93674999D01*
X136105971Y-93621421D01*
X136105499Y-93610613D01*
X136105499Y-92777129D01*
X136105498Y-92777123D01*
X136105497Y-92777116D01*
X136099091Y-92717517D01*
X136048796Y-92582669D01*
X135971421Y-92479309D01*
X135947004Y-92413848D01*
X135961855Y-92345575D01*
X135971416Y-92330696D01*
X136048796Y-92227331D01*
X136099091Y-92092483D01*
X136105500Y-92032873D01*
X136105499Y-90237128D01*
X136099091Y-90177517D01*
X136048796Y-90042669D01*
X135971421Y-89939309D01*
X135947004Y-89873848D01*
X135961855Y-89805575D01*
X135971416Y-89790696D01*
X136048796Y-89687331D01*
X136099091Y-89552483D01*
X136105500Y-89492873D01*
X136105499Y-88659383D01*
X136105971Y-88648576D01*
X136110659Y-88595000D01*
X136110659Y-88594999D01*
X136105971Y-88541421D01*
X136105499Y-88530613D01*
X136105499Y-87697129D01*
X136105498Y-87697123D01*
X136105497Y-87697116D01*
X136099091Y-87637517D01*
X136048796Y-87502669D01*
X135971421Y-87399309D01*
X135947004Y-87333848D01*
X135961855Y-87265575D01*
X135971416Y-87250696D01*
X136048796Y-87147331D01*
X136099091Y-87012483D01*
X136105500Y-86952873D01*
X136105499Y-86119383D01*
X136105971Y-86108576D01*
X136110659Y-86055000D01*
X136110659Y-86054999D01*
X136105971Y-86001421D01*
X136105499Y-85990613D01*
X136105499Y-85157129D01*
X136105498Y-85157123D01*
X136105497Y-85157116D01*
X136099091Y-85097517D01*
X136066866Y-85011118D01*
X136048797Y-84962671D01*
X136048795Y-84962668D01*
X135971421Y-84859309D01*
X135947004Y-84793848D01*
X135961855Y-84725575D01*
X135971416Y-84710696D01*
X136048796Y-84607331D01*
X136099091Y-84472483D01*
X136105500Y-84412873D01*
X136105499Y-83579383D01*
X136105971Y-83568576D01*
X136110659Y-83515000D01*
X136110659Y-83514999D01*
X136105971Y-83461421D01*
X136105499Y-83450613D01*
X136105499Y-82617129D01*
X136105498Y-82617123D01*
X136105497Y-82617116D01*
X136099091Y-82557517D01*
X136048796Y-82422669D01*
X135971421Y-82319309D01*
X135947004Y-82253848D01*
X135961855Y-82185575D01*
X135971416Y-82170696D01*
X136048796Y-82067331D01*
X136099091Y-81932483D01*
X136105500Y-81872873D01*
X136105499Y-81039383D01*
X136105971Y-81028576D01*
X136110659Y-80975000D01*
X136110659Y-80974999D01*
X136105971Y-80921421D01*
X136105499Y-80910613D01*
X136105499Y-80077129D01*
X136105498Y-80077123D01*
X136105497Y-80077116D01*
X136099091Y-80017517D01*
X136048796Y-79882669D01*
X135971421Y-79779309D01*
X135947004Y-79713848D01*
X135961855Y-79645575D01*
X135971416Y-79630696D01*
X136048796Y-79527331D01*
X136099091Y-79392483D01*
X136105500Y-79332873D01*
X136105499Y-77537128D01*
X136099091Y-77477517D01*
X136098748Y-77476598D01*
X136048797Y-77342671D01*
X136048795Y-77342668D01*
X135971421Y-77239309D01*
X135947004Y-77173848D01*
X135961855Y-77105575D01*
X135971416Y-77090696D01*
X136048796Y-76987331D01*
X136099091Y-76852483D01*
X136105500Y-76792873D01*
X136105500Y-76515002D01*
X139964723Y-76515002D01*
X139983793Y-76732975D01*
X139983793Y-76732979D01*
X140040422Y-76944322D01*
X140040424Y-76944326D01*
X140040425Y-76944330D01*
X140060477Y-76987331D01*
X140132897Y-77142638D01*
X140148555Y-77165000D01*
X140258402Y-77321877D01*
X140413123Y-77476598D01*
X140592361Y-77602102D01*
X140790670Y-77694575D01*
X141002023Y-77751207D01*
X141184926Y-77767208D01*
X141219998Y-77770277D01*
X141220000Y-77770277D01*
X141220002Y-77770277D01*
X141248254Y-77767805D01*
X141437977Y-77751207D01*
X141649330Y-77694575D01*
X141847639Y-77602102D01*
X142026877Y-77476598D01*
X142181598Y-77321877D01*
X142307102Y-77142639D01*
X142399575Y-76944330D01*
X142456207Y-76732977D01*
X142475277Y-76515002D01*
X144814723Y-76515002D01*
X144833793Y-76732975D01*
X144833793Y-76732979D01*
X144890422Y-76944322D01*
X144890424Y-76944326D01*
X144890425Y-76944330D01*
X144910477Y-76987331D01*
X144982897Y-77142638D01*
X144998555Y-77165000D01*
X145108402Y-77321877D01*
X145263123Y-77476598D01*
X145442361Y-77602102D01*
X145640670Y-77694575D01*
X145852023Y-77751207D01*
X146034926Y-77767208D01*
X146069998Y-77770277D01*
X146070000Y-77770277D01*
X146070002Y-77770277D01*
X146098254Y-77767805D01*
X146287977Y-77751207D01*
X146499330Y-77694575D01*
X146697639Y-77602102D01*
X146876877Y-77476598D01*
X147031598Y-77321877D01*
X147157102Y-77142639D01*
X147249575Y-76944330D01*
X147306207Y-76732977D01*
X147325277Y-76515000D01*
X147306207Y-76297023D01*
X147249575Y-76085670D01*
X147157102Y-75887362D01*
X147157100Y-75887359D01*
X147157099Y-75887357D01*
X147031599Y-75708124D01*
X147031596Y-75708121D01*
X146876877Y-75553402D01*
X146697639Y-75427898D01*
X146697640Y-75427898D01*
X146697638Y-75427897D01*
X146598484Y-75381661D01*
X146499330Y-75335425D01*
X146499326Y-75335424D01*
X146499322Y-75335422D01*
X146287977Y-75278793D01*
X146070002Y-75259723D01*
X146069998Y-75259723D01*
X145924682Y-75272436D01*
X145852023Y-75278793D01*
X145852020Y-75278793D01*
X145640677Y-75335422D01*
X145640668Y-75335426D01*
X145442361Y-75427898D01*
X145442357Y-75427900D01*
X145263121Y-75553402D01*
X145108402Y-75708121D01*
X144982900Y-75887357D01*
X144982898Y-75887361D01*
X144890426Y-76085668D01*
X144890422Y-76085677D01*
X144833793Y-76297020D01*
X144833793Y-76297024D01*
X144814723Y-76514997D01*
X144814723Y-76515002D01*
X142475277Y-76515002D01*
X142475277Y-76515000D01*
X142456207Y-76297023D01*
X142399575Y-76085670D01*
X142307102Y-75887362D01*
X142307100Y-75887359D01*
X142307099Y-75887357D01*
X142181599Y-75708124D01*
X142181596Y-75708121D01*
X142026877Y-75553402D01*
X141847639Y-75427898D01*
X141847640Y-75427898D01*
X141847638Y-75427897D01*
X141748484Y-75381661D01*
X141649330Y-75335425D01*
X141649326Y-75335424D01*
X141649322Y-75335422D01*
X141437977Y-75278793D01*
X141220002Y-75259723D01*
X141219998Y-75259723D01*
X141074682Y-75272436D01*
X141002023Y-75278793D01*
X141002020Y-75278793D01*
X140790677Y-75335422D01*
X140790668Y-75335426D01*
X140592361Y-75427898D01*
X140592357Y-75427900D01*
X140413121Y-75553402D01*
X140258402Y-75708121D01*
X140132900Y-75887357D01*
X140132898Y-75887361D01*
X140040426Y-76085668D01*
X140040422Y-76085677D01*
X139983793Y-76297020D01*
X139983793Y-76297024D01*
X139964723Y-76514997D01*
X139964723Y-76515002D01*
X136105500Y-76515002D01*
X136105499Y-75959383D01*
X136105971Y-75948576D01*
X136110659Y-75895000D01*
X136110659Y-75894999D01*
X136105971Y-75841421D01*
X136105499Y-75830613D01*
X136105499Y-74997129D01*
X136105498Y-74997123D01*
X136105497Y-74997116D01*
X136099091Y-74937517D01*
X136075821Y-74875128D01*
X136048797Y-74802671D01*
X136048795Y-74802668D01*
X135971421Y-74699309D01*
X135947004Y-74633848D01*
X135961855Y-74565575D01*
X135971416Y-74550696D01*
X136048796Y-74447331D01*
X136099091Y-74312483D01*
X136105500Y-74252873D01*
X136105499Y-73485006D01*
X139514700Y-73485006D01*
X139533864Y-73716297D01*
X139533866Y-73716308D01*
X139590842Y-73941300D01*
X139684075Y-74153848D01*
X139811016Y-74348147D01*
X139811019Y-74348151D01*
X139811021Y-74348153D01*
X139968216Y-74518913D01*
X139968219Y-74518915D01*
X139968222Y-74518918D01*
X140151365Y-74661464D01*
X140151371Y-74661468D01*
X140151374Y-74661470D01*
X140355497Y-74771936D01*
X140445019Y-74802669D01*
X140575015Y-74847297D01*
X140575017Y-74847297D01*
X140575019Y-74847298D01*
X140803951Y-74885500D01*
X140803952Y-74885500D01*
X141036048Y-74885500D01*
X141036049Y-74885500D01*
X141264981Y-74847298D01*
X141484503Y-74771936D01*
X141688626Y-74661470D01*
X141871784Y-74518913D01*
X142028979Y-74348153D01*
X142155924Y-74153849D01*
X142249157Y-73941300D01*
X142306134Y-73716305D01*
X142325300Y-73485006D01*
X144964700Y-73485006D01*
X144983864Y-73716297D01*
X144983866Y-73716308D01*
X145040842Y-73941300D01*
X145134075Y-74153848D01*
X145261016Y-74348147D01*
X145261019Y-74348151D01*
X145261021Y-74348153D01*
X145418216Y-74518913D01*
X145418219Y-74518915D01*
X145418222Y-74518918D01*
X145601365Y-74661464D01*
X145601371Y-74661468D01*
X145601374Y-74661470D01*
X145805497Y-74771936D01*
X145895019Y-74802669D01*
X146025015Y-74847297D01*
X146025017Y-74847297D01*
X146025019Y-74847298D01*
X146253951Y-74885500D01*
X146253952Y-74885500D01*
X146486048Y-74885500D01*
X146486049Y-74885500D01*
X146714981Y-74847298D01*
X146934503Y-74771936D01*
X147138626Y-74661470D01*
X147321784Y-74518913D01*
X147478979Y-74348153D01*
X147605924Y-74153849D01*
X147699157Y-73941300D01*
X147756134Y-73716305D01*
X147775300Y-73485000D01*
X147775300Y-73484993D01*
X147756135Y-73253702D01*
X147756133Y-73253691D01*
X147699157Y-73028699D01*
X147605924Y-72816151D01*
X147478983Y-72621852D01*
X147478980Y-72621849D01*
X147478979Y-72621847D01*
X147321784Y-72451087D01*
X147321779Y-72451083D01*
X147321777Y-72451081D01*
X147138634Y-72308535D01*
X147138628Y-72308531D01*
X146934504Y-72198064D01*
X146934495Y-72198061D01*
X146714984Y-72122702D01*
X146543282Y-72094050D01*
X146486049Y-72084500D01*
X146253951Y-72084500D01*
X146208164Y-72092140D01*
X146025015Y-72122702D01*
X145805504Y-72198061D01*
X145805495Y-72198064D01*
X145601371Y-72308531D01*
X145601365Y-72308535D01*
X145418222Y-72451081D01*
X145418219Y-72451084D01*
X145418216Y-72451086D01*
X145418216Y-72451087D01*
X145359267Y-72515122D01*
X145261016Y-72621852D01*
X145134075Y-72816151D01*
X145040842Y-73028699D01*
X144983866Y-73253691D01*
X144983864Y-73253702D01*
X144964700Y-73484993D01*
X144964700Y-73485006D01*
X142325300Y-73485006D01*
X142325300Y-73485000D01*
X142325300Y-73484993D01*
X142306135Y-73253702D01*
X142306133Y-73253691D01*
X142249157Y-73028699D01*
X142155924Y-72816151D01*
X142028983Y-72621852D01*
X142028980Y-72621849D01*
X142028979Y-72621847D01*
X141871784Y-72451087D01*
X141871779Y-72451083D01*
X141871777Y-72451081D01*
X141688634Y-72308535D01*
X141688628Y-72308531D01*
X141484504Y-72198064D01*
X141484495Y-72198061D01*
X141264984Y-72122702D01*
X141093282Y-72094050D01*
X141036049Y-72084500D01*
X140803951Y-72084500D01*
X140758164Y-72092140D01*
X140575015Y-72122702D01*
X140355504Y-72198061D01*
X140355495Y-72198064D01*
X140151371Y-72308531D01*
X140151365Y-72308535D01*
X139968222Y-72451081D01*
X139968219Y-72451084D01*
X139968216Y-72451086D01*
X139968216Y-72451087D01*
X139909267Y-72515122D01*
X139811016Y-72621852D01*
X139684075Y-72816151D01*
X139590842Y-73028699D01*
X139533866Y-73253691D01*
X139533864Y-73253702D01*
X139514700Y-73484993D01*
X139514700Y-73485006D01*
X136105499Y-73485006D01*
X136105499Y-73419383D01*
X136105971Y-73408576D01*
X136110659Y-73355000D01*
X136110659Y-73354999D01*
X136105971Y-73301421D01*
X136105499Y-73290613D01*
X136105499Y-72457129D01*
X136105498Y-72457123D01*
X136105497Y-72457116D01*
X136099091Y-72397517D01*
X136065901Y-72308531D01*
X136048797Y-72262671D01*
X136048793Y-72262664D01*
X135962547Y-72147455D01*
X135962544Y-72147452D01*
X135847335Y-72061206D01*
X135847328Y-72061202D01*
X135712482Y-72010908D01*
X135712483Y-72010908D01*
X135652883Y-72004501D01*
X135652881Y-72004500D01*
X135652873Y-72004500D01*
X135652865Y-72004500D01*
X134819380Y-72004500D01*
X134808573Y-72004028D01*
X134782024Y-72001705D01*
X134755001Y-71999341D01*
X134754998Y-71999341D01*
X134701424Y-72004028D01*
X134690617Y-72004500D01*
X132057129Y-72004500D01*
X132057123Y-72004501D01*
X131997516Y-72010908D01*
X131862671Y-72061202D01*
X131862664Y-72061206D01*
X131747455Y-72147452D01*
X131747452Y-72147455D01*
X131661206Y-72262664D01*
X131661202Y-72262671D01*
X131610908Y-72397517D01*
X131605149Y-72451087D01*
X131604501Y-72457123D01*
X131604500Y-72457135D01*
X131604500Y-74252870D01*
X131604501Y-74252876D01*
X131610908Y-74312483D01*
X131661202Y-74447328D01*
X131661203Y-74447330D01*
X131661204Y-74447331D01*
X131738576Y-74550687D01*
X131738578Y-74550689D01*
X131762995Y-74616153D01*
X131748144Y-74684426D01*
X131738578Y-74699311D01*
X131661203Y-74802669D01*
X131661202Y-74802671D01*
X131610908Y-74937517D01*
X131604501Y-74997116D01*
X131604501Y-74997123D01*
X131604500Y-74997135D01*
X131604500Y-76792870D01*
X131604501Y-76792876D01*
X131610908Y-76852483D01*
X131661202Y-76987328D01*
X131661203Y-76987330D01*
X131694508Y-77031819D01*
X131738576Y-77090687D01*
X131738578Y-77090689D01*
X131762995Y-77156153D01*
X131748144Y-77224426D01*
X131738578Y-77239311D01*
X131661203Y-77342669D01*
X131661202Y-77342671D01*
X131610908Y-77477517D01*
X131604501Y-77537116D01*
X131604501Y-77537123D01*
X131604500Y-77537135D01*
X131604500Y-79332870D01*
X131604501Y-79332876D01*
X131610908Y-79392483D01*
X131661202Y-79527328D01*
X131661203Y-79527330D01*
X131738578Y-79630689D01*
X131762995Y-79696153D01*
X131748144Y-79764426D01*
X131738578Y-79779311D01*
X131661203Y-79882669D01*
X131661202Y-79882671D01*
X131610908Y-80017517D01*
X131604501Y-80077116D01*
X131604501Y-80077123D01*
X131604500Y-80077135D01*
X131604500Y-81872870D01*
X131604501Y-81872876D01*
X131610908Y-81932483D01*
X131661202Y-82067328D01*
X131661203Y-82067330D01*
X131738578Y-82170689D01*
X131762995Y-82236153D01*
X131748144Y-82304426D01*
X131738578Y-82319311D01*
X131661203Y-82422669D01*
X131661202Y-82422671D01*
X131610908Y-82557517D01*
X131604501Y-82617116D01*
X131604501Y-82617123D01*
X131604500Y-82617135D01*
X131604500Y-84412870D01*
X131604501Y-84412876D01*
X131610908Y-84472483D01*
X131661202Y-84607328D01*
X131661203Y-84607330D01*
X131738578Y-84710689D01*
X131762995Y-84776153D01*
X131748144Y-84844426D01*
X131738578Y-84859311D01*
X131661203Y-84962669D01*
X131661202Y-84962671D01*
X131610908Y-85097517D01*
X131604501Y-85157116D01*
X131604501Y-85157123D01*
X131604500Y-85157135D01*
X131604500Y-86952870D01*
X131604501Y-86952876D01*
X131610908Y-87012483D01*
X131661202Y-87147328D01*
X131661203Y-87147330D01*
X131738578Y-87250689D01*
X131762995Y-87316153D01*
X131748144Y-87384426D01*
X131738578Y-87399311D01*
X131661203Y-87502669D01*
X131661202Y-87502671D01*
X131610908Y-87637517D01*
X131604501Y-87697116D01*
X131604501Y-87697123D01*
X131604500Y-87697135D01*
X131604500Y-89492870D01*
X131604501Y-89492876D01*
X131610908Y-89552483D01*
X131661202Y-89687328D01*
X131661203Y-89687330D01*
X131738578Y-89790689D01*
X131762995Y-89856153D01*
X131748144Y-89924426D01*
X131738578Y-89939311D01*
X131661203Y-90042669D01*
X131661202Y-90042671D01*
X131610908Y-90177517D01*
X131604501Y-90237116D01*
X131604501Y-90237123D01*
X131604500Y-90237135D01*
X131604500Y-92032870D01*
X131604501Y-92032876D01*
X131610908Y-92092483D01*
X131661202Y-92227328D01*
X131661203Y-92227330D01*
X131738578Y-92330689D01*
X131762995Y-92396153D01*
X131748144Y-92464426D01*
X131738578Y-92479311D01*
X131661203Y-92582669D01*
X131661202Y-92582671D01*
X131610908Y-92717517D01*
X131604501Y-92777116D01*
X131604501Y-92777123D01*
X131604500Y-92777135D01*
X131604500Y-94572870D01*
X131604501Y-94572876D01*
X131610908Y-94632483D01*
X131661202Y-94767328D01*
X131661203Y-94767330D01*
X131661204Y-94767331D01*
X131723660Y-94850762D01*
X131738578Y-94870689D01*
X131762995Y-94936153D01*
X131748144Y-95004426D01*
X131738578Y-95019311D01*
X131661203Y-95122669D01*
X131661202Y-95122671D01*
X131610908Y-95257517D01*
X131604501Y-95317116D01*
X131604501Y-95317123D01*
X131604500Y-95317135D01*
X131604500Y-97112870D01*
X131604501Y-97112876D01*
X131610908Y-97172483D01*
X131661202Y-97307328D01*
X131661203Y-97307330D01*
X131738578Y-97410689D01*
X131762995Y-97476153D01*
X131748144Y-97544426D01*
X131738578Y-97559311D01*
X131661203Y-97662669D01*
X131661202Y-97662671D01*
X131610908Y-97797517D01*
X131604501Y-97857116D01*
X131604501Y-97857123D01*
X131604500Y-97857135D01*
X131604500Y-99652870D01*
X131604501Y-99652876D01*
X131610908Y-99712483D01*
X131661202Y-99847328D01*
X131661203Y-99847330D01*
X131738578Y-99950689D01*
X131762995Y-100016153D01*
X131748144Y-100084426D01*
X131738578Y-100099311D01*
X131661203Y-100202669D01*
X131661202Y-100202671D01*
X131610908Y-100337517D01*
X131604501Y-100397116D01*
X131604501Y-100397123D01*
X131604500Y-100397135D01*
X131604500Y-102192870D01*
X131604501Y-102192876D01*
X131610908Y-102252483D01*
X131661202Y-102387328D01*
X131661203Y-102387330D01*
X131661204Y-102387331D01*
X131738576Y-102490687D01*
X131738578Y-102490689D01*
X131762995Y-102556153D01*
X131748144Y-102624426D01*
X131738578Y-102639311D01*
X131661203Y-102742669D01*
X131661202Y-102742671D01*
X131610908Y-102877517D01*
X131604501Y-102937116D01*
X131604501Y-102937123D01*
X131604500Y-102937135D01*
X131604500Y-104732870D01*
X131604501Y-104732876D01*
X131610908Y-104792483D01*
X131661202Y-104927328D01*
X131661203Y-104927330D01*
X131694508Y-104971819D01*
X131738576Y-105030687D01*
X131738578Y-105030689D01*
X131762995Y-105096153D01*
X131748144Y-105164426D01*
X131738578Y-105179311D01*
X131661203Y-105282669D01*
X131661202Y-105282671D01*
X131610908Y-105417517D01*
X131604501Y-105477116D01*
X131604501Y-105477123D01*
X131604500Y-105477135D01*
X131604500Y-107272870D01*
X131604501Y-107272876D01*
X131610908Y-107332483D01*
X131661202Y-107467328D01*
X131661203Y-107467330D01*
X131738578Y-107570689D01*
X131762995Y-107636153D01*
X131748144Y-107704426D01*
X131738578Y-107719311D01*
X131661203Y-107822669D01*
X131661202Y-107822671D01*
X131610908Y-107957517D01*
X131604501Y-108017116D01*
X131604501Y-108017123D01*
X131604500Y-108017135D01*
X131604500Y-109812870D01*
X131604501Y-109812876D01*
X131610908Y-109872483D01*
X131661202Y-110007328D01*
X131661203Y-110007330D01*
X131738578Y-110110689D01*
X131762995Y-110176153D01*
X131748144Y-110244426D01*
X131738578Y-110259311D01*
X131661203Y-110362669D01*
X131661202Y-110362671D01*
X131610908Y-110497517D01*
X131604501Y-110557116D01*
X131604501Y-110557123D01*
X131604500Y-110557135D01*
X131604500Y-112352870D01*
X131604501Y-112352876D01*
X131610908Y-112412483D01*
X131661202Y-112547328D01*
X131661203Y-112547330D01*
X131738578Y-112650689D01*
X131762995Y-112716153D01*
X131748144Y-112784426D01*
X131738578Y-112799311D01*
X131661203Y-112902669D01*
X131661202Y-112902671D01*
X131610908Y-113037517D01*
X131604501Y-113097116D01*
X131604501Y-113097123D01*
X131604500Y-113097135D01*
X131604500Y-114892870D01*
X131604501Y-114892876D01*
X131610908Y-114952483D01*
X131661202Y-115087328D01*
X131661203Y-115087330D01*
X131738578Y-115190689D01*
X131762995Y-115256153D01*
X131748144Y-115324426D01*
X131738578Y-115339311D01*
X131661203Y-115442669D01*
X131661202Y-115442671D01*
X131610908Y-115577517D01*
X131604501Y-115637116D01*
X131604501Y-115637123D01*
X131604500Y-115637135D01*
X131604500Y-117432870D01*
X131604501Y-117432876D01*
X131610908Y-117492483D01*
X131661202Y-117627328D01*
X131661203Y-117627330D01*
X131682818Y-117656204D01*
X131738576Y-117730687D01*
X131738578Y-117730689D01*
X131762995Y-117796153D01*
X131748144Y-117864426D01*
X131738578Y-117879311D01*
X131661203Y-117982669D01*
X131661202Y-117982671D01*
X131610908Y-118117517D01*
X131604501Y-118177116D01*
X131604501Y-118177123D01*
X131604500Y-118177135D01*
X131604500Y-119972870D01*
X131604501Y-119972876D01*
X131610908Y-120032483D01*
X131661202Y-120167328D01*
X131661203Y-120167330D01*
X131680416Y-120192995D01*
X131738576Y-120270687D01*
X131738578Y-120270689D01*
X131762995Y-120336153D01*
X131748144Y-120404426D01*
X131738578Y-120419311D01*
X131661203Y-120522669D01*
X131661202Y-120522671D01*
X131610908Y-120657517D01*
X131604501Y-120717116D01*
X131604501Y-120717123D01*
X131604500Y-120717135D01*
X131604500Y-122512870D01*
X125000000Y-122512870D01*
X125000000Y-65124000D01*
X125019685Y-65056961D01*
X125072489Y-65011206D01*
X125124000Y-65000000D01*
X195376000Y-65000000D01*
X195443039Y-65019685D01*
G37*
%TD.AperFunction*%
M02*
