%TF.GenerationSoftware,KiCad,Pcbnew,8.0.1*%
%TF.CreationDate,2024-04-01T14:38:45-03:00*%
%TF.ProjectId,PonderadaPCB,506f6e64-6572-4616-9461-5043422e6b69,rev?*%
%TF.SameCoordinates,Original*%
%TF.FileFunction,Copper,L2,Bot*%
%TF.FilePolarity,Positive*%
%FSLAX46Y46*%
G04 Gerber Fmt 4.6, Leading zero omitted, Abs format (unit mm)*
G04 Created by KiCad (PCBNEW 8.0.1) date 2024-04-01 14:38:45*
%MOMM*%
%LPD*%
G01*
G04 APERTURE LIST*
%TA.AperFunction,ComponentPad*%
%ADD10R,1.800000X1.800000*%
%TD*%
%TA.AperFunction,ComponentPad*%
%ADD11C,1.800000*%
%TD*%
%TA.AperFunction,ComponentPad*%
%ADD12C,1.600000*%
%TD*%
%TA.AperFunction,ComponentPad*%
%ADD13O,1.600000X1.600000*%
%TD*%
%TA.AperFunction,ComponentPad*%
%ADD14R,1.500000X1.500000*%
%TD*%
%TA.AperFunction,ComponentPad*%
%ADD15R,1.050000X1.500000*%
%TD*%
%TA.AperFunction,ComponentPad*%
%ADD16O,1.050000X1.500000*%
%TD*%
%TA.AperFunction,ComponentPad*%
%ADD17O,1.700000X1.700000*%
%TD*%
%TA.AperFunction,ComponentPad*%
%ADD18R,1.700000X1.700000*%
%TD*%
%TA.AperFunction,ComponentPad*%
%ADD19R,2.000000X2.000000*%
%TD*%
%TA.AperFunction,ComponentPad*%
%ADD20C,2.000000*%
%TD*%
G04 APERTURE END LIST*
D10*
%TO.P,D1,1,K*%
%TO.N,GND (LED)*%
X184775000Y-119000000D03*
D11*
%TO.P,D1,2,A*%
%TO.N,Net-(D1-A)*%
X182235000Y-119000000D03*
%TD*%
D12*
%TO.P,R1,1*%
%TO.N,GP17 (LED)*%
X160380000Y-119000000D03*
D13*
%TO.P,R1,2*%
%TO.N,Net-(D1-A)*%
X175620000Y-119000000D03*
%TD*%
D14*
%TO.P,SW1,1,B*%
%TO.N,VCC*%
X166000000Y-102960000D03*
D12*
%TO.P,SW1,2,C*%
%TO.N,GP22 (Switch)*%
X166000000Y-105500000D03*
%TO.P,SW1,3,A*%
%TO.N,unconnected-(SW1-A-Pad3)*%
X166000000Y-100420000D03*
%TD*%
D15*
%TO.P,Q1,1,C*%
%TO.N,Net-(Q1-B)*%
X181230000Y-105000000D03*
D16*
%TO.P,Q1,2,B*%
X179960000Y-105000000D03*
%TO.P,Q1,3,E*%
%TO.N,GND (Buzzer)*%
X178690000Y-105000000D03*
%TD*%
D17*
%TO.P,U1,1,GPIO0*%
%TO.N,unconnected-(U1-GPIO0-Pad1)*%
X134755000Y-73355000D03*
%TO.P,U1,2,GPIO1*%
%TO.N,unconnected-(U1-GPIO1-Pad2)*%
X134755000Y-75895000D03*
D18*
%TO.P,U1,3,GND*%
%TO.N,unconnected-(U1-GND-Pad3)*%
X134755000Y-78435000D03*
D17*
%TO.P,U1,4,GPIO2*%
%TO.N,unconnected-(U1-GPIO2-Pad4)*%
X134755000Y-80975000D03*
%TO.P,U1,5,GPIO3*%
%TO.N,unconnected-(U1-GPIO3-Pad5)*%
X134755000Y-83515000D03*
%TO.P,U1,6,GPIO4*%
%TO.N,unconnected-(U1-GPIO4-Pad6)*%
X134755000Y-86055000D03*
%TO.P,U1,7,GPIO5*%
%TO.N,unconnected-(U1-GPIO5-Pad7)*%
X134755000Y-88595000D03*
D18*
%TO.P,U1,8,GND*%
%TO.N,unconnected-(U1-GND-Pad8)*%
X134755000Y-91135000D03*
D17*
%TO.P,U1,9,GPIO6*%
%TO.N,unconnected-(U1-GPIO6-Pad9)*%
X134755000Y-93675000D03*
%TO.P,U1,10,GPIO7*%
%TO.N,unconnected-(U1-GPIO7-Pad10)*%
X134755000Y-96215000D03*
%TO.P,U1,11,GPIO8*%
%TO.N,unconnected-(U1-GPIO8-Pad11)*%
X134755000Y-98755000D03*
%TO.P,U1,12,GPIO9*%
%TO.N,unconnected-(U1-GPIO9-Pad12)*%
X134755000Y-101295000D03*
D18*
%TO.P,U1,13,GND*%
%TO.N,unconnected-(U1-GND-Pad13)*%
X134755000Y-103835000D03*
D17*
%TO.P,U1,14,GPIO10*%
%TO.N,unconnected-(U1-GPIO10-Pad14)*%
X134755000Y-106375000D03*
%TO.P,U1,15,GPIO11*%
%TO.N,unconnected-(U1-GPIO11-Pad15)*%
X134755000Y-108915000D03*
%TO.P,U1,16,GPIO12*%
%TO.N,unconnected-(U1-GPIO12-Pad16)*%
X134755000Y-111455000D03*
%TO.P,U1,17,GPIO13*%
%TO.N,unconnected-(U1-GPIO13-Pad17)*%
X134755000Y-113995000D03*
D18*
%TO.P,U1,18,GND*%
%TO.N,unconnected-(U1-GND-Pad18)*%
X134755000Y-116535000D03*
D17*
%TO.P,U1,19,GPIO14*%
%TO.N,unconnected-(U1-GPIO14-Pad19)*%
X134755000Y-119075000D03*
%TO.P,U1,20,GPIO15*%
%TO.N,unconnected-(U1-GPIO15-Pad20)*%
X134755000Y-121615000D03*
%TO.P,U1,21,GPIO16*%
%TO.N,GP16 (Buzzer)*%
X152535000Y-121615000D03*
%TO.P,U1,22,GPIO17*%
%TO.N,GP17 (LED)*%
X152535000Y-119075000D03*
D18*
%TO.P,U1,23,GND*%
%TO.N,GND (LED)*%
X152535000Y-116535000D03*
D17*
%TO.P,U1,24,GPIO18*%
X152535000Y-113995000D03*
%TO.P,U1,25,GPIO19*%
%TO.N,unconnected-(U1-GPIO19-Pad25)*%
X152535000Y-111455000D03*
%TO.P,U1,26,GPIO20*%
%TO.N,unconnected-(U1-GPIO20-Pad26)*%
X152535000Y-108915000D03*
%TO.P,U1,27,GPIO21*%
%TO.N,GND (Buzzer)*%
X152535000Y-106375000D03*
D18*
%TO.P,U1,28,GND*%
X152535000Y-103835000D03*
D17*
%TO.P,U1,29,GPIO22*%
%TO.N,GP22 (Switch)*%
X152535000Y-101295000D03*
%TO.P,U1,30,RUN*%
%TO.N,unconnected-(U1-RUN-Pad30)*%
X152535000Y-98755000D03*
%TO.P,U1,31,GPIO26_ADC0*%
%TO.N,unconnected-(U1-GPIO26_ADC0-Pad31)*%
X152535000Y-96215000D03*
%TO.P,U1,32,GPIO27_ADC1*%
%TO.N,unconnected-(U1-GPIO27_ADC1-Pad32)*%
X152535000Y-93675000D03*
D18*
%TO.P,U1,33,AGND*%
%TO.N,unconnected-(U1-AGND-Pad33)*%
X152535000Y-91135000D03*
D17*
%TO.P,U1,34,GPIO28_ADC2*%
%TO.N,unconnected-(U1-GPIO28_ADC2-Pad34)*%
X152535000Y-88595000D03*
%TO.P,U1,35,ADC_VREF*%
%TO.N,unconnected-(U1-ADC_VREF-Pad35)*%
X152535000Y-86055000D03*
%TO.P,U1,36,3V3*%
%TO.N,unconnected-(U1-3V3-Pad36)*%
X152535000Y-83515000D03*
%TO.P,U1,37,3V3_EN*%
%TO.N,unconnected-(U1-3V3_EN-Pad37)*%
X152535000Y-80975000D03*
D18*
%TO.P,U1,38,GND*%
%TO.N,VCC*%
X152535000Y-78435000D03*
D17*
%TO.P,U1,39,VSYS*%
X152535000Y-75895000D03*
%TO.P,U1,40,VBUS*%
%TO.N,unconnected-(U1-VBUS-Pad40)*%
X152535000Y-73355000D03*
%TO.P,U1,41,SWCLK*%
%TO.N,unconnected-(U1-SWCLK-Pad41)*%
X141105000Y-121385000D03*
D18*
%TO.P,U1,42,GND*%
%TO.N,unconnected-(U1-GND-Pad42)*%
X143645000Y-121385000D03*
D17*
%TO.P,U1,43,SWDIO*%
%TO.N,unconnected-(U1-SWDIO-Pad43)*%
X146185000Y-121385000D03*
%TD*%
D19*
%TO.P,BZ1,1,+*%
%TO.N,VCC*%
X181700000Y-85500000D03*
D20*
%TO.P,BZ1,2,-*%
%TO.N,Net-(Q1-B)*%
X189300000Y-85500000D03*
%TD*%
D12*
%TO.P,R2,1*%
%TO.N,GP16 (Buzzer)*%
X189500000Y-121620000D03*
D13*
%TO.P,R2,2*%
%TO.N,Net-(Q1-B)*%
X189500000Y-106380000D03*
%TD*%
M02*
