%TF.GenerationSoftware,KiCad,Pcbnew,8.0.1*%
%TF.CreationDate,2024-04-01T02:41:19-03:00*%
%TF.ProjectId,PonderadaPCB,506f6e64-6572-4616-9461-5043422e6b69,rev?*%
%TF.SameCoordinates,Original*%
%TF.FileFunction,Soldermask,Top*%
%TF.FilePolarity,Negative*%
%FSLAX46Y46*%
G04 Gerber Fmt 4.6, Leading zero omitted, Abs format (unit mm)*
G04 Created by KiCad (PCBNEW 8.0.1) date 2024-04-01 02:41:19*
%MOMM*%
%LPD*%
G01*
G04 APERTURE LIST*
%ADD10R,1.500000X1.500000*%
%ADD11C,1.600000*%
%ADD12R,1.800000X1.800000*%
%ADD13C,1.800000*%
%ADD14O,1.600000X1.600000*%
%ADD15R,1.050000X1.500000*%
%ADD16O,1.050000X1.500000*%
%ADD17O,1.800000X1.800000*%
%ADD18O,1.500000X1.500000*%
%ADD19O,1.700000X1.700000*%
%ADD20R,3.500000X1.700000*%
%ADD21R,1.700000X1.700000*%
%ADD22R,1.700000X3.500000*%
%ADD23R,2.000000X2.000000*%
%ADD24C,2.000000*%
G04 APERTURE END LIST*
D10*
%TO.C,SW1*%
X161500000Y-110460000D03*
D11*
X161500000Y-107920000D03*
X161500000Y-113000000D03*
%TD*%
D12*
%TO.C,D1*%
X184775000Y-119000000D03*
D13*
X182235000Y-119000000D03*
%TD*%
D11*
%TO.C,R1*%
X160380000Y-119000000D03*
D14*
X175620000Y-119000000D03*
%TD*%
D15*
%TO.C,Q1*%
X173770000Y-94140000D03*
D16*
X172500000Y-94140000D03*
X171230000Y-94140000D03*
%TD*%
D17*
%TO.C,U1*%
X140920000Y-73485000D03*
D18*
X141220000Y-76515000D03*
X146070000Y-76515000D03*
D17*
X146370000Y-73485000D03*
D19*
X134755000Y-73355000D03*
D20*
X133855000Y-73355000D03*
D19*
X134755000Y-75895000D03*
D20*
X133855000Y-75895000D03*
D21*
X134755000Y-78435000D03*
D20*
X133855000Y-78435000D03*
D19*
X134755000Y-80975000D03*
D20*
X133855000Y-80975000D03*
D19*
X134755000Y-83515000D03*
D20*
X133855000Y-83515000D03*
D19*
X134755000Y-86055000D03*
D20*
X133855000Y-86055000D03*
D19*
X134755000Y-88595000D03*
D20*
X133855000Y-88595000D03*
D21*
X134755000Y-91135000D03*
D20*
X133855000Y-91135000D03*
D19*
X134755000Y-93675000D03*
D20*
X133855000Y-93675000D03*
D19*
X134755000Y-96215000D03*
D20*
X133855000Y-96215000D03*
D19*
X134755000Y-98755000D03*
D20*
X133855000Y-98755000D03*
D19*
X134755000Y-101295000D03*
D20*
X133855000Y-101295000D03*
D21*
X134755000Y-103835000D03*
D20*
X133855000Y-103835000D03*
D19*
X134755000Y-106375000D03*
D20*
X133855000Y-106375000D03*
D19*
X134755000Y-108915000D03*
D20*
X133855000Y-108915000D03*
D19*
X134755000Y-111455000D03*
D20*
X133855000Y-111455000D03*
D19*
X134755000Y-113995000D03*
D20*
X133855000Y-113995000D03*
D21*
X134755000Y-116535000D03*
D20*
X133855000Y-116535000D03*
D19*
X134755000Y-119075000D03*
D20*
X133855000Y-119075000D03*
D19*
X134755000Y-121615000D03*
D20*
X133855000Y-121615000D03*
D19*
X152535000Y-121615000D03*
D20*
X153435000Y-121615000D03*
D19*
X152535000Y-119075000D03*
D20*
X153435000Y-119075000D03*
D21*
X152535000Y-116535000D03*
D20*
X153435000Y-116535000D03*
D19*
X152535000Y-113995000D03*
D20*
X153435000Y-113995000D03*
D19*
X152535000Y-111455000D03*
D20*
X153435000Y-111455000D03*
D19*
X152535000Y-108915000D03*
D20*
X153435000Y-108915000D03*
D19*
X152535000Y-106375000D03*
D20*
X153435000Y-106375000D03*
D21*
X152535000Y-103835000D03*
D20*
X153435000Y-103835000D03*
D19*
X152535000Y-101295000D03*
D20*
X153435000Y-101295000D03*
D19*
X152535000Y-98755000D03*
D20*
X153435000Y-98755000D03*
D19*
X152535000Y-96215000D03*
D20*
X153435000Y-96215000D03*
D19*
X152535000Y-93675000D03*
D20*
X153435000Y-93675000D03*
D21*
X152535000Y-91135000D03*
D20*
X153435000Y-91135000D03*
D19*
X152535000Y-88595000D03*
D20*
X153435000Y-88595000D03*
D19*
X152535000Y-86055000D03*
D20*
X153435000Y-86055000D03*
D19*
X152535000Y-83515000D03*
D20*
X153435000Y-83515000D03*
D19*
X152535000Y-80975000D03*
D20*
X153435000Y-80975000D03*
D21*
X152535000Y-78435000D03*
D20*
X153435000Y-78435000D03*
D19*
X152535000Y-75895000D03*
D20*
X153435000Y-75895000D03*
D19*
X152535000Y-73355000D03*
D20*
X153435000Y-73355000D03*
D19*
X141105000Y-121385000D03*
D22*
X141105000Y-122285000D03*
D21*
X143645000Y-121385000D03*
D22*
X143645000Y-122285000D03*
D19*
X146185000Y-121385000D03*
D22*
X146185000Y-122285000D03*
%TD*%
D23*
%TO.C,BZ1*%
X181700000Y-85500000D03*
D24*
X189300000Y-85500000D03*
%TD*%
D11*
%TO.C,R2*%
X189500000Y-121620000D03*
D14*
X189500000Y-106380000D03*
%TD*%
M02*
